<svg width="416" height="416" viewBox="0 0 416 416" fill="none" xmlns="http://www.w3.org/2000/svg">
<path d="M313.4 310.194C293.161 331.067 267.187 345.47 238.763 351.581C210.339 357.692 180.74 355.237 153.711 344.526C126.682 333.816 103.436 315.331 86.9126 291.409C70.3892 267.487 61.3305 239.202 60.8822 210.132C60.4338 181.061 68.6159 152.511 84.3937 128.09C100.172 103.67 122.837 84.4771 149.522 72.9381C176.208 61.3991 205.717 58.0325 234.316 63.2641C262.915 68.4957 289.321 82.0905 310.194 102.329" stroke="#829186"/>
<path d="M80.1288 156.549L75.7414 143.606L63.5407 149.56L67.5886 162.959L80.1288 156.549Z" fill="#829186"/>
</svg>
