<svg width="782" height="969" viewBox="0 0 782 969" fill="none" xmlns="http://www.w3.org/2000/svg">
<g opacity="0.5" filter="url(#filter0_f_706_10)">
<path d="M274.86 673.327C279.38 666.403 318.828 636.557 331.574 622.6C344.321 608.643 360.855 598.636 378.714 583.715C396.572 568.794 441.157 551.03 463.641 548.796C484.549 546.72 505.938 554.777 514.989 555.626C517.754 555.593 526.659 559.548 527.594 560.155C529.832 561.608 516.804 561.843 509.705 567.283C504.738 571.089 499.851 570.485 484.312 587.371C472.987 599.677 466.22 603.055 448.215 610.565C419.994 622.336 381.726 632.814 361.9 647.098C342.073 661.381 328.581 672.553 328.581 672.553C324.839 675.781 317.133 682.402 311.459 687.267C270.215 722.625 242.414 747.838 225.087 765.6C211.12 779.916 189.86 804.394 189.206 806.911C189.074 807.419 190.8 806.178 193.043 804.155C200.386 797.529 221.049 781.574 232.552 773.649C252.139 760.153 268.09 750.321 311.19 725.176C329.409 711.993 334.969 710.309 350.122 703.165C362.244 697.45 382.621 703.11 391.294 706.654C396.225 709.857 404.126 715.902 396.28 714.465C388.435 713.027 383.258 714.803 381.65 715.871C380.806 715.787 379.026 717.312 376.492 720.292L369.682 727.596C365.608 732.819 343.861 751.347 330.246 761.197C323.453 766.112 305.807 777.16 303.745 777.79L284.841 787.491C281.011 789.279 266.868 795.525 253.411 801.371C221.14 815.392 209.98 821.141 192.909 832.539C171.68 846.713 150.726 865.202 137.271 881.632L134.215 885.363L130.486 882.941L126.757 880.519L129.774 874.934C152.707 832.484 165.402 786.553 168.402 735.185C168.741 729.37 169.141 722.84 169.29 720.673C169.44 718.507 170.007 707.353 170.551 695.887C172.793 648.655 175.418 625.003 181.061 601.204C186.868 576.713 195.57 555.329 205.638 540.807C209.631 535.047 210.13 534.559 211.4 535.176C212.528 535.725 212.628 538.461 211.926 549.693C211.012 564.346 210.41 583.886 210.068 609.985C209.577 647.557 209.079 662.487 207.559 685.172C206.149 706.199 200.114 747.221 197.85 751.164C197.485 751.798 197.576 751.931 198.115 751.555C199.772 750.399 225.415 687.664 233.352 665.344C247.258 626.245 252.291 604.324 257.197 561.49C262.396 516.103 265.706 496.951 281.218 422.543C286.204 398.621 290.729 376.868 291.272 374.204C291.815 371.539 292.757 367.006 293.365 364.132C293.974 361.258 295.441 354.199 296.625 348.444C299.082 336.512 299.95 334.573 302.188 336.026C303.123 336.633 303.589 337.716 303.419 338.883C302.324 346.392 305.727 363.347 312.332 383.293C315.134 391.756 318.196 401.615 319.135 405.203C329.873 446.2 324.656 489.72 300.634 559.524C282.79 611.378 255.71 671.682 221.47 735.816C206.01 764.774 206.016 764.825 222.062 740.316C246.683 702.709 266.669 665.971 285.659 623.414C316.133 555.121 337.063 487.822 351.555 411.527C361.371 359.847 364.451 345.168 369.116 327.826C383.879 272.94 400.127 243.94 442.373 197.079C446.09 192.955 450.863 187.619 452.978 185.221C459.626 177.685 461.416 178.801 459.931 189.557C459.377 193.571 458.329 201.201 457.603 206.514C454.036 232.594 452.88 239.831 449.162 259.36C441.542 299.386 432.748 326.39 406.459 390.488C374.768 467.756 355.458 512.871 341.836 541.473C339.457 546.467 337.571 550.968 337.645 551.476C337.719 551.983 338.281 551.319 338.892 550C343.225 540.666 377.282 474.573 392.88 445.226C400.048 431.744 405.165 422.292 425.304 385.352C427.937 380.524 433.17 371.165 436.934 364.556C440.697 357.947 446.033 348.45 448.791 343.451C457.372 327.896 487.64 280.392 497.216 267.45C530.072 223.042 562.531 192.33 599.367 170.794C634.145 150.462 669.078 140.517 709.019 139.581C713.691 139.471 717.708 139.509 717.947 139.664C718.186 139.82 719.503 139.902 720.875 139.846C724.65 139.693 735.414 140.949 736.528 141.673C738.415 142.899 736.961 144.683 730.336 149.27C659.397 198.38 626.986 222.049 592.279 250.088C520.5 308.076 459.824 372.491 408.163 445.55C394.989 464.18 371.197 500.634 371.181 502.212C371.174 502.824 375.515 497.434 380.825 490.234C413.374 446.103 450.683 408.322 488.926 380.765C508.941 366.344 532.757 352.949 556.688 342.655C566.924 338.252 586.121 330.671 592.15 328.65C626.515 317.132 654.295 308.656 655.377 309.359C656.748 310.25 656.325 312.247 653.493 318.242C638.843 349.246 615.929 378.161 588.495 400.261C584.207 403.715 580.734 406.704 580.776 406.903C580.819 407.102 528.29 440.809 470.576 481.97L445.817 501.784C375.21 558.283 335.453 595.331 298.251 639.291C286.846 652.768 270.909 675.105 272.132 675.9C272.582 676.192 273.646 675.188 274.86 673.327Z" fill="#849187"/>
</g>
<defs>
<filter id="filter0_f_706_10" x="84.7573" y="97.5181" width="694.533" height="829.845" filterUnits="userSpaceOnUse" color-interpolation-filters="sRGB">
<feFlood flood-opacity="0" result="BackgroundImageFix"/>
<feBlend mode="normal" in="SourceGraphic" in2="BackgroundImageFix" result="shape"/>
<feGaussianBlur stdDeviation="21" result="effect1_foregroundBlur_706_10"/>
</filter>
</defs>
</svg>
