<svg width="849" height="942" viewBox="0 0 849 942" fill="none" xmlns="http://www.w3.org/2000/svg">
<g opacity="0.5" filter="url(#filter0_f_706_11)">
<path d="M570.053 642.12C564.791 635.742 548.068 589.188 538.547 572.859C529.026 556.53 524.406 537.764 515.489 516.268C506.572 494.773 502.913 446.919 507.486 424.792C511.739 404.216 525.808 386.203 529.318 377.817C530.111 375.168 536.541 367.847 537.399 367.136C539.454 365.433 535.793 377.939 538.868 386.337C541.02 392.213 538.987 396.697 550.47 416.565C558.838 431.044 560.045 438.511 561.844 457.937C564.663 488.383 563.253 528.035 570.974 551.219C578.695 574.403 585.335 590.613 585.335 590.613C587.3 595.148 591.321 604.477 594.273 611.344C615.722 661.255 631.497 695.31 643.283 717.146C652.784 734.747 669.808 762.339 672.015 763.714C672.46 763.991 671.791 761.973 670.528 759.23C666.394 750.245 657.327 725.764 653.193 712.421C646.152 689.7 641.525 671.543 630.376 622.906C623.227 601.585 623.277 595.775 620.977 579.181C619.137 565.906 630.616 548.144 636.586 540.923C641.113 537.171 649.24 531.433 645.528 538.493C641.816 545.553 641.967 551.024 642.507 552.877C642.176 553.657 643.1 555.811 645.189 559.119L650.13 567.797C653.9 573.243 665.1 599.526 670.441 615.459C673.107 623.408 678.39 643.546 678.377 645.702L681.998 666.639C682.563 670.828 684.307 686.19 685.874 700.778C689.633 735.762 691.793 748.129 697.581 767.822C704.779 792.312 716.178 817.826 727.848 835.569L730.498 839.598L727.074 842.435L723.65 845.272L719.219 840.727C685.539 806.178 645.485 780.364 597.349 762.182C591.899 760.124 585.786 757.794 583.762 757.006C581.739 756.217 571.262 752.349 560.479 748.411C516.065 732.186 494.273 722.627 473.24 710.143C451.595 697.297 433.778 682.613 422.92 668.673C418.613 663.144 418.296 662.522 419.264 661.494C420.123 660.581 422.765 661.302 433.276 665.321C446.99 670.564 465.462 676.966 490.271 685.074C525.987 696.748 540.089 701.676 561.288 709.892C580.939 717.508 618.294 735.502 621.382 738.839C621.879 739.376 622.033 739.329 621.834 738.702C621.225 736.775 568.992 693.592 550.055 679.359C516.881 654.426 497.459 643.085 458.038 625.628C416.265 607.131 398.972 598.259 332.576 561.264C311.23 549.371 291.816 538.565 289.435 537.252C287.053 535.939 283.008 533.688 280.446 532.25C277.884 530.812 271.583 527.307 266.444 524.46C255.787 518.557 254.195 517.15 256.25 515.447C257.108 514.736 258.281 514.614 259.344 515.124C266.184 518.409 283.383 520.217 304.39 519.861C313.304 519.71 323.628 519.728 327.332 519.901C369.667 521.878 409.65 539.835 469.114 583.581C513.287 616.077 562.771 659.909 613.776 711.717C636.807 735.109 636.857 735.118 618.248 712.493C589.695 677.778 560.589 647.745 525.632 616.928C469.534 567.474 411.538 527.427 343.037 490.842C296.636 466.061 283.543 458.744 268.381 449.12C220.395 418.66 197.561 394.503 165.431 340.205C162.603 335.427 158.933 329.28 157.274 326.546C152.063 317.953 153.663 316.578 163.486 321.203C167.153 322.929 174.123 326.204 178.977 328.482C202.808 339.663 209.371 342.925 226.902 352.298C262.835 371.507 285.987 387.954 339.328 432.163C403.63 485.454 440.934 517.339 464.172 538.871C468.229 542.631 471.963 545.773 472.47 545.854C472.976 545.935 472.51 545.201 471.433 544.224C463.816 537.304 410.886 485.087 387.527 461.447C376.795 450.585 369.3 442.881 340.046 412.643C336.223 408.69 328.851 400.904 323.665 395.341C318.479 389.778 311.005 381.852 307.056 377.729C294.768 364.9 258.451 321.842 248.954 308.843C216.365 264.239 196.73 224.098 187.159 182.515C178.124 143.256 179.05 106.947 190.067 68.5449C191.355 64.0528 192.589 60.2293 192.809 60.0478C193.028 59.8657 193.499 58.6326 193.855 57.307C194.835 53.6585 199.244 43.7588 200.267 42.9113C202 41.4751 203.269 43.3953 205.672 51.0868C231.393 133.443 244.319 171.438 260.732 212.927C294.675 298.734 338.064 375.858 392.393 446.956C406.247 465.087 433.947 498.667 435.448 499.153C436.031 499.342 432.18 493.591 426.891 486.376C394.475 442.147 369.539 395.269 354.641 350.548C346.845 327.143 341.162 300.416 338.473 274.504C337.323 263.421 335.811 242.836 335.68 236.479C334.935 200.243 335.129 171.199 336.122 170.376C337.381 169.333 339.161 170.333 344.039 174.824C369.264 198.053 390.03 228.547 402.943 261.323C404.961 266.446 406.778 270.653 406.981 270.672C407.183 270.69 423.691 330.881 445.769 398.244L457.297 427.785C490.17 512.028 513.676 561.025 544.541 609.644C554.004 624.549 570.572 646.422 571.695 645.491C572.108 645.149 571.467 643.834 570.053 642.12Z" fill="#849187"/>
</g>
<defs>
<filter id="filter0_f_706_11" x="112.358" y="0.47168" width="660.14" height="886.801" filterUnits="userSpaceOnUse" color-interpolation-filters="sRGB">
<feFlood flood-opacity="0" result="BackgroundImageFix"/>
<feBlend mode="normal" in="SourceGraphic" in2="BackgroundImageFix" result="shape"/>
<feGaussianBlur stdDeviation="21" result="effect1_foregroundBlur_706_11"/>
</filter>
</defs>
</svg>
