<svg width="61" height="185" viewBox="0 0 61 185" fill="none" xmlns="http://www.w3.org/2000/svg">
<path d="M31.6608 135.073C31.6653 133.481 34.908 124.53 35.5042 120.941C36.1004 117.353 37.7216 114.005 39.042 109.725C40.3624 105.445 45.6994 97.905 49.0949 95.1879C52.2525 92.6612 56.549 91.7197 58.0989 90.9079C58.5417 90.6128 60.3934 90.3176 60.6078 90.3176C61.1213 90.3176 59.0428 91.721 58.4664 93.3431C58.0632 94.4779 57.2112 94.8927 56.4709 99.2465C55.9313 102.42 55.1927 103.674 53.0725 106.773C49.7495 111.631 44.6694 117.333 42.9646 121.716C41.2597 126.1 40.2516 129.317 40.2516 129.317C39.9855 130.23 39.4349 132.106 39.0283 133.486C36.0728 143.515 34.2251 150.498 33.2879 155.181C32.5324 158.955 31.6637 165.134 31.8216 165.609C31.8534 165.705 32.0022 165.323 32.1523 164.762C32.6439 162.923 34.3088 158.182 35.3358 155.697C37.0845 151.466 38.6299 148.208 42.9542 139.632C44.5148 135.595 45.236 134.74 46.9341 131.999C48.2925 129.806 52.1744 128.584 53.9455 128.247C55.0769 128.247 56.9853 128.394 55.5683 128.985C54.1514 129.575 53.5016 130.404 53.3538 130.745C53.2088 130.82 53.0812 131.253 52.9842 131.999L52.6497 133.892C52.5389 135.162 50.9686 140.431 49.8021 143.448C49.2201 144.953 47.5286 148.586 47.2618 148.904L45.2258 152.451C44.7948 153.141 43.1659 155.631 41.6058 157.985C37.8646 163.63 36.665 165.728 35.1029 169.357C33.1601 173.869 31.7136 179.049 31.262 183.111L31.1595 184.034H30.3039H29.4483L29.3506 182.816C28.6075 173.562 25.8474 164.818 20.953 156.214C20.3988 155.24 19.7797 154.144 19.5768 153.779C19.3742 153.414 18.2979 151.554 17.185 149.647C12.6013 141.789 10.5485 137.697 8.96751 133.265C7.34043 128.704 6.50596 124.34 6.61062 120.941C6.65213 119.593 6.68157 119.462 6.95119 119.429C7.19071 119.399 7.49326 119.83 8.55611 121.716C9.94284 124.177 11.8917 127.394 14.5693 131.641C18.4241 137.756 19.9071 140.218 22.0369 144.038C24.0112 147.58 27.3324 154.832 27.3797 155.706C27.3873 155.847 27.4158 155.859 27.4635 155.741C27.6099 155.381 25.1803 142.569 24.1245 138.135C22.2751 130.367 20.7922 126.302 17.0991 118.875C13.1858 111.005 11.7149 107.568 6.42758 93.9334C4.7278 89.5502 3.18035 85.5654 2.98909 85.0784C2.79769 84.5913 2.47515 83.7612 2.2724 83.2335C2.06981 82.7059 1.56734 81.413 1.15595 80.3601C0.303108 78.177 0.240185 77.7729 0.753712 77.7729C0.968124 77.7729 1.15679 77.8988 1.25155 78.105C1.86097 79.4315 4.18568 81.8111 7.34034 84.3378C8.67887 85.4098 10.2054 86.6801 10.7327 87.1606C16.7589 92.6515 20.4736 100.222 23.905 114.005C26.4542 124.244 28.3971 136.814 29.5854 150.753C30.122 157.047 30.1284 157.055 30.1523 151.418C30.1888 142.768 29.5682 134.744 28.1776 125.885C25.946 111.67 22.2777 98.6149 16.6283 84.7832C12.8014 75.4139 11.7616 72.7221 10.6987 69.4344C7.33472 59.0293 6.92108 52.6461 8.83379 40.6555C9.00203 39.6002 9.21369 38.2388 9.30405 37.63C9.58804 35.717 9.99385 35.7096 10.8804 37.6011C11.2112 38.3069 11.841 39.6482 12.2801 40.5817C14.4353 45.1645 15.0064 46.4536 16.4511 49.9949C19.4122 57.2532 20.8202 62.5331 23.288 75.633C26.2631 91.4246 27.87 100.729 28.6659 106.773C28.8047 107.828 28.9717 108.753 29.0367 108.827C29.1018 108.901 29.123 108.735 29.0836 108.458C28.8057 106.497 27.3826 92.2611 26.8278 85.8901C26.573 82.963 26.4095 80.9013 25.7923 72.8289C25.7118 71.7736 25.5766 69.7148 25.4921 68.2537C25.4075 66.7927 25.2745 64.7006 25.1963 63.6048C24.9527 60.195 24.8645 49.356 25.0552 46.2637C25.709 35.6531 27.7328 27.2945 31.4241 19.9578C34.9091 13.0312 39.5069 7.7648 45.8561 3.4273C46.5988 2.9199 47.2513 2.5049 47.306 2.5049C47.3609 2.5049 47.5822 2.38004 47.7977 2.22729C48.391 1.80697 50.2602 0.88147 50.5158 0.88147C50.9489 0.88147 50.9009 1.32186 50.3118 2.75653C44.0029 18.1177 41.2494 25.3347 38.5827 33.4976C33.0677 50.3796 30.018 67.1349 29.3287 84.3404C29.1528 88.728 29.1292 97.1049 29.2918 97.3612C29.3549 97.4607 29.4912 96.1358 29.5944 94.4172C30.2276 83.8835 32.2942 73.8757 35.5822 65.42C37.303 60.9947 39.7449 56.3367 42.5301 52.167C43.7214 50.3835 46.0264 47.1478 46.788 46.1899C51.1294 40.729 54.7262 36.4493 54.9744 36.4493C55.289 36.4493 55.4297 36.8161 55.6003 38.0804C56.4819 44.6196 55.8107 51.6877 53.6964 58.1299C53.3659 59.1367 53.1182 59.9831 53.1458 60.0109C53.1735 60.0385 48.2235 70.984 43.2171 83.6763L41.295 89.469C35.8135 105.988 33.275 116.134 31.8727 127.128C31.4428 130.498 31.2091 135.774 31.4898 135.774C31.593 135.774 31.6597 135.5 31.6608 135.073Z" fill="#849187"/>
</svg>
