<svg width="613" height="865" viewBox="0 0 613 865" fill="none" xmlns="http://www.w3.org/2000/svg">
<path d="M269.934 1.0022C252.031 0.748189 196.188 22.4152 116.043 111.115C15.861 221.991 -2.04222 385.065 1.38606 401.448C4.81433 417.832 -11.9461 507.37 78.7128 633.105C100.416 663.205 141.564 716.166 218.891 744.361C278.695 767.603 298.96 764.098 306.884 765.317C316.787 766.841 335.833 770.651 340.024 777.129C344.214 783.606 344.975 787.416 345.737 791.988C346.347 795.646 344.214 798.084 343.071 798.846C342.055 798.211 339.947 796.103 339.643 792.75C339.338 789.397 339.516 776.113 339.643 769.889C339.77 768.619 340.404 764.555 341.928 758.459C343.833 750.839 346.499 744.742 349.927 724.549C353.356 704.355 362.879 679.208 354.498 659.014C345.619 637.618 331.262 623.961 284.79 619.389C247.612 615.731 240.096 593.226 240.984 582.43C241.238 574.81 246.165 556.14 254.698 550.044C265.363 542.424 271.077 538.995 276.029 535.947C279.991 533.508 267.268 533.152 260.411 533.279L247.46 537.852C245.048 539.503 239.461 541.433 236.413 535.947C233.366 530.46 238.953 521.468 242.127 517.658C242.539 517.285 243.053 516.849 243.651 516.375M243.651 516.375C246.923 513.782 252.715 510.049 258.126 509.276C264.014 508.434 280.674 508.173 290.123 508.137M243.651 516.375C242.762 516.168 240.68 515.677 239.461 515.372C237.937 514.991 236.413 506.227 236.413 506.608C236.413 506.913 236.413 493.019 236.413 486.034C236.794 481.715 238.242 473.46 240.984 474.984C241.761 475.416 242.536 475.552 243.27 475.497M243.651 516.375C246.698 510.072 255.536 497.54 266.506 497.845C277.477 498.15 286.822 504.833 290.123 508.137M290.123 508.137C290.943 508.134 291.709 508.132 292.409 508.132C295.456 508.259 301.855 507.828 303.074 505.084C304.293 502.341 287.838 485.653 279.457 477.651C275.394 473.587 265.44 465.459 258.126 465.459C250.812 465.459 247.968 470.539 247.46 473.079C246.732 473.99 245.129 475.357 243.27 475.497M243.27 475.497C245.556 472.913 249.822 466.907 248.603 463.554M248.603 463.554C247.079 459.363 240.223 450.599 241.365 446.789M248.603 463.554C249.746 463.808 252.26 463.782 253.174 461.649C254.088 459.515 253.301 457.204 252.793 456.315C249.365 451.869 242.28 443.741 241.365 446.789M241.365 446.789C235.906 442.217 225.291 430.863 226.51 422.023C227.728 413.184 232.858 409.704 235.271 409.069L271.458 389.256L282.505 382.017L288.218 373.253C289.234 370.713 290.733 364.871 288.599 361.823C286.466 358.775 280.854 365.633 278.315 369.443M278.315 369.443L281.743 379.731L278.315 383.16C276.664 383.541 273.134 383.617 272.22 380.874M278.315 369.443C278.695 365.379 280.981 355.346 287.076 347.725C294.694 338.2 303.455 317.625 311.835 311.148C320.216 304.671 348.389 294.662 356.022 293.621C364.402 292.478 376.592 289.43 401.352 297.05C406.811 299.718 419.026 306.119 424.207 310.386C430.682 315.72 453.918 333.247 462.299 347.344C459.505 348.614 451.785 351.155 443.253 351.155C434.72 351.155 426.238 347.598 423.064 345.82L419.788 343.915M404.018 334.744L390.305 326.77C382.052 323.213 364.25 316.177 359.069 316.482C352.594 316.863 342.69 319.149 327.834 327.913C312.978 336.676 308.407 341.248 306.122 345.058C304.293 348.106 304.344 353.695 304.598 356.108L306.122 359.156L325.168 344.296L346.88 331.723C351.197 329.31 361.203 324.712 366.688 325.627C372.173 326.541 393.86 332.086 404.018 334.744ZM404.018 334.744L419.788 343.915M419.788 343.915L420.398 348.868C419.89 351.536 416.741 357.403 408.208 359.537M408.208 359.537C396.019 355.727 369.735 348.259 362.117 348.868C354.498 349.478 352.34 349.884 352.213 350.011C349.547 351.028 342.995 354.507 338.119 360.299C333.243 366.09 329.231 374.904 327.834 378.588M408.208 359.537L403.256 360.883M327.834 378.588H319.073M327.834 378.588H338.119L403.256 360.883M403.256 360.883C401.986 363.101 397.39 368.148 389.162 370.586C378.877 373.634 341.547 388.494 325.549 391.542C318.057 401.321 302.693 422.023 301.17 426.595C299.265 432.311 298.122 435.359 296.98 440.693C296.065 444.96 289.742 449.075 286.695 450.599C285.679 451.107 282.733 451.819 279.076 450.599C277.609 450.11 275.848 448.624 274.117 446.789M274.117 446.789C271.534 444.051 269.018 440.536 267.649 438.407C267.014 437.518 265.211 435.435 263.078 434.216C260.411 432.692 255.84 429.644 245.555 432.311C248.73 435.486 256.297 442.217 261.173 443.741C266.049 445.265 271.834 446.408 274.117 446.789ZM471.441 354.203C472.203 353.949 474.031 357.022 475.25 371.348C476.469 385.674 484.9 395.098 488.963 398.019C491.883 400.305 498.638 405.106 502.295 406.021C506.866 407.164 510.295 409.069 517.532 408.688C524.769 408.307 530.483 408.688 533.911 402.973L473.345 379.35C473.091 383.16 473.726 392.914 478.297 401.448C484.011 412.117 487.058 415.546 494.296 418.975C501.533 422.404 502.676 422.404 505.723 422.404C508.161 422.404 512.58 421.642 514.485 421.261C518.802 419.229 528.426 414.098 532.388 409.831C536.349 405.563 543.688 401.702 546.863 400.305C547.371 400.813 548.31 402.363 548.006 404.497C547.701 406.63 544.831 416.054 543.435 420.499C543.054 422.531 542.292 427.357 542.292 430.406C542.292 432.834 543.098 442.033 543.746 448.948C544.04 452.075 545.652 458.832 542.673 457.839V457.839C541.758 457.534 540.006 454.79 538.863 452.885L530.935 439.77C530.31 438.736 528.728 439.103 528.622 440.306L527.602 451.777C527.495 452.983 526.955 454.107 526.084 454.947C522.872 458.046 517.854 462.968 516.008 465.078C513.875 467.516 513.088 470.666 512.961 471.936C512.707 472.698 512.351 474.375 512.961 474.984C513.723 475.746 515.627 476.889 518.294 476.508C520.96 476.127 533.912 476.127 540.768 473.079C546.253 470.641 548.133 470.031 548.386 470.031C552.196 468.38 559.662 463.554 559.052 457.458C558.443 451.361 557.275 448.567 556.767 447.932L550.348 439.907C548.554 437.663 547.264 435.059 546.567 432.272V432.272C546.512 432.048 546.521 431.814 546.593 431.595L546.771 431.063C547.06 430.196 547.821 429.571 548.728 429.458V429.458C549.76 429.329 550.806 429.41 551.805 429.695L555.624 430.787L570.48 435.74C572.765 437.772 577.184 442.903 576.575 447.17C575.965 451.438 574.289 454.409 573.908 455.552C572.511 458.347 568.347 465.687 556.767 474.222C550.219 479.048 546.204 480.609 544.227 481.399C542.786 481.975 544.03 482.675 545.508 482.204L551.81 480.199C557.074 478.523 561.876 475.647 565.836 471.796L568.578 469.129C571.871 465.927 574.87 462.435 577.539 458.697L578.946 456.728C579.131 456.468 579.43 456.315 579.749 456.315V456.315C580.361 456.315 580.91 456.692 581.129 457.263L583.159 462.542C584.094 464.974 584.574 467.557 584.574 470.162V470.162C584.574 472.066 584.023 473.929 582.987 475.526L581.27 478.174C577.402 484.138 572.616 489.454 567.088 493.924L557.529 501.655L552.577 504.531M514.104 493.273L519.818 490.606L524.043 488.915C525.019 488.525 526.079 488.388 527.122 488.519V488.519C528.08 488.638 529.009 488.962 529.781 489.541C530.762 490.276 531.775 491.204 532.007 492.13C532.245 493.084 532.185 494.386 532.107 495.663C532.018 497.113 531.863 498.563 531.579 499.988L530.771 504.027C530.582 504.971 530.632 505.947 530.915 506.868L531.225 507.875C531.701 509.425 533.037 510.556 534.644 510.77V510.77C536.669 511.04 538.728 510.845 540.665 510.199L543.262 509.333C544.897 508.788 546.471 508.078 547.96 507.212L552.577 504.531M514.104 493.273L510.675 494.416M514.104 493.273L509.533 497.845L505.086 502.081C502.718 504.336 500.426 506.669 498.428 509.258C495.949 512.469 492.397 517.484 489.344 523.373C484.011 533.66 483.859 534.346 481.726 541.662C479.592 548.977 479.059 557.156 479.059 560.331C478.678 566.555 478.297 580.449 479.821 586.24C481.726 593.48 484.392 596.528 490.106 605.291C494.677 612.302 505.216 618.119 509.914 620.151C514.612 622.056 526.674 625.714 537.34 625.104C548.006 624.494 553.973 622.564 555.624 621.675C561.465 619.262 574.213 612.073 578.479 602.624C583.812 590.813 583.431 591.194 584.574 577.096C585.717 562.999 579.622 550.425 576.194 539.757C573.451 531.222 566.671 520.96 563.623 516.896L552.577 504.531M510.675 494.416C508.771 491.749 505.038 484.281 505.343 475.746C505.464 472.342 506.167 467.969 507.106 463.554M510.675 494.416L498.867 503.56C496.327 505.973 494.296 506.989 488.582 514.991C482.868 522.992 480.583 530.612 479.059 535.185C477.535 539.757 476.012 549.282 474.107 552.33C472.203 555.378 459.632 564.523 447.824 568.333C436.015 572.143 413.541 580.525 386.115 584.716C358.689 588.908 342.934 589.828 337.357 590.813C330.881 591.956 328.215 592.337 327.834 593.48C327.529 594.394 338.754 596.528 343.071 597.29C357.165 598.814 374.315 598.814 385.353 598.814C403.256 598.814 416.689 598.632 432.206 596.528C449.216 594.221 462.298 590.386 469.306 587.997C471.705 587.179 474.298 588.817 474.485 591.345L474.869 596.528C475.504 599.703 477.612 607.501 480.964 613.292C485.154 620.532 493.153 648.727 549.91 657.49C549.91 657.49 555.624 655.204 553.338 690.638C553.338 708.546 552.653 713.262 551.815 728.359C550.901 744.819 556.513 774.335 559.433 787.035C563.623 799.228 572.003 836.567 612 864M507.106 463.554C509.109 454.131 512.183 444.519 512.961 443.741C513.875 442.827 514.612 444.122 514.866 444.884L515.122 446.679C515.457 449.025 515.4 451.426 514.285 453.517C513.042 455.85 510.82 459.232 507.106 463.554Z" stroke="#E8CBB9" stroke-linecap="round"/>
</svg>
