<svg width="895" height="900" viewBox="0 0 895 900" fill="none" xmlns="http://www.w3.org/2000/svg">
<g filter="url(#filter0_f_705_5)">
<path d="M607.99 604.669C602.156 598.809 581.162 554.019 570.159 538.649C559.156 523.28 552.805 505.027 541.922 484.457C531.039 463.887 522.93 416.583 525.419 394.127C527.734 373.244 540.061 353.996 542.773 345.319C543.315 342.608 549.035 334.719 549.823 333.931C551.71 332.044 549.231 344.837 553.077 352.911C555.767 358.561 554.161 363.215 567.447 381.925C577.131 395.56 579.029 402.882 582.632 422.055C588.279 452.106 590.575 491.716 600.425 514.078C610.276 536.441 618.399 551.96 618.399 551.96C620.779 556.292 625.653 565.205 629.232 571.767C655.245 619.46 674.128 651.894 687.9 672.535C699.001 689.173 718.525 715.056 720.851 716.219C721.32 716.454 720.466 714.507 718.953 711.893C713.998 703.334 702.686 679.805 697.326 666.906C688.196 644.942 681.894 627.295 666.257 579.91C657.149 559.349 656.658 553.561 652.82 537.254C649.749 524.208 659.521 505.453 664.79 497.706C668.948 493.548 676.504 487.077 673.467 494.452C670.43 501.827 671.091 507.261 671.801 509.055C671.544 509.863 672.666 511.921 675.054 515.019L680.783 523.199C685.045 528.269 698.648 553.393 705.452 568.758C708.848 576.424 715.987 595.981 716.175 598.129L721.734 618.637C722.687 622.754 725.857 637.887 728.779 652.265C735.785 686.745 739.089 698.857 746.689 717.924C756.141 741.636 769.87 765.975 783.145 782.552L786.159 786.316L783.015 789.46L779.871 792.604L775.035 788.492C738.279 757.237 695.99 735.272 646.368 721.66C640.75 720.12 634.446 718.371 632.357 717.775C630.27 717.178 619.477 714.304 608.374 711.389C562.64 699.379 540.051 691.895 517.945 681.428C495.196 670.657 476.087 657.7 463.975 644.833C459.172 639.73 458.798 639.141 459.666 638.027C460.436 637.037 463.134 637.509 473.974 640.53C488.117 644.47 507.106 649.121 532.563 654.879C569.212 663.169 583.713 666.76 605.586 672.963C625.861 678.712 664.733 693.142 668.118 696.176C668.663 696.665 668.812 696.604 668.556 695.998C667.77 694.137 611.735 656.015 591.553 643.611C556.198 621.882 535.802 612.402 494.924 598.7C451.608 584.181 433.563 576.961 364.004 546.322C341.642 536.472 321.305 527.525 318.811 526.439C316.317 525.354 312.08 523.491 309.395 522.298C306.71 521.105 300.11 518.204 294.727 515.849C283.566 510.966 281.85 509.713 283.737 507.826C284.525 507.038 285.681 506.807 286.787 507.216C293.904 509.848 311.196 510.043 332.079 507.729C340.94 506.747 351.22 505.802 354.925 505.629C397.259 503.647 438.743 517.796 502.029 555.803C549.042 584.036 602.399 623.059 658.015 669.882C683.128 691.024 683.179 691.028 662.54 670.238C630.873 638.338 599.091 611.152 561.412 583.731C500.945 539.727 439.466 505.266 367.85 475.231C319.339 454.887 305.621 448.824 289.627 440.656C239.008 414.807 214.02 392.885 176.964 341.822C173.702 337.328 169.475 331.551 167.569 328.983C161.579 320.914 163.043 319.396 173.255 323.084C177.066 324.46 184.312 327.071 189.358 328.886C214.127 337.795 220.966 340.431 239.295 348.126C276.863 363.9 301.45 378.115 358.682 417.154C427.676 464.213 467.792 492.479 492.937 511.749C497.327 515.114 501.338 517.894 501.85 517.928C502.362 517.961 501.829 517.273 500.666 516.401C492.436 510.222 434.866 463.171 409.403 441.813C397.705 432 389.524 425.03 357.576 397.653C353.4 394.073 345.334 387.009 339.652 381.954C333.969 376.899 325.789 369.706 321.472 365.969C308.041 354.342 267.866 314.861 257.197 302.804C220.588 261.435 197.294 223.301 183.885 182.793C171.227 144.548 168.761 108.311 176.147 69.0484C177.011 64.4557 177.883 60.5337 178.084 60.3325C178.286 60.1308 178.64 58.8591 178.87 57.5061C179.505 53.7821 182.972 43.5142 183.911 42.575C185.503 40.9833 186.946 42.7767 190.055 50.2106C223.347 129.808 239.762 166.431 259.975 206.208C301.776 288.473 352.171 361.213 412.896 426.931C428.381 443.691 459.093 474.54 460.633 474.884C461.231 475.018 456.86 469.652 450.921 462.961C414.52 421.95 385.319 377.603 366.314 334.466C356.368 311.891 348.217 285.811 343.122 260.263C340.942 249.335 337.517 228.981 336.794 222.665C332.67 186.655 330.154 157.721 331.066 156.808C332.222 155.652 334.088 156.482 339.363 160.498C366.645 181.273 390.166 209.696 406.081 241.125C408.568 246.037 410.77 250.055 410.973 250.056C411.176 250.055 433.228 308.443 461.494 373.452L475.728 401.789C516.317 482.597 544.292 529.187 579.559 574.715C590.371 588.672 608.907 608.903 609.939 607.872C610.318 607.493 609.558 606.243 607.99 604.669Z" fill="#849187"/>
</g>
<defs>
<filter id="filter0_f_705_5" x="122.039" y="0.0400391" width="706.121" height="834.564" filterUnits="userSpaceOnUse" color-interpolation-filters="sRGB">
<feFlood flood-opacity="0" result="BackgroundImageFix"/>
<feBlend mode="normal" in="SourceGraphic" in2="BackgroundImageFix" result="shape"/>
<feGaussianBlur stdDeviation="21" result="effect1_foregroundBlur_705_5"/>
</filter>
</defs>
</svg>
