<svg width="565" height="589" viewBox="0 0 565 589" fill="none" xmlns="http://www.w3.org/2000/svg">
<g filter="url(#filter0_f_705_3)">
<path d="M182.319 397.851C185.941 393.97 198.482 364.791 205.223 354.699C211.964 344.608 215.66 332.762 222.216 319.336C228.772 305.91 232.992 275.386 230.927 261.027C229.008 247.674 220.697 235.579 218.776 230.068C218.372 228.339 214.538 223.396 214.016 222.906C212.765 221.735 214.622 229.892 212.322 235.154C210.713 238.835 211.841 241.789 203.704 254.071C197.773 263.022 196.708 267.76 194.794 280.139C191.795 299.54 191.146 325.006 185.29 339.561C179.434 354.116 174.543 364.244 174.543 364.244C173.106 367.073 170.164 372.895 168.004 377.18C152.303 408.326 140.86 429.532 132.451 443.064C125.673 453.971 113.683 470.987 112.215 471.781C111.918 471.942 112.426 470.675 113.343 468.966C116.344 463.37 123.114 448.036 126.286 439.647C131.688 425.363 135.364 413.908 144.414 383.175C149.831 369.792 150.026 366.067 152.15 355.522C153.849 347.087 147.188 335.255 143.645 330.393C140.891 327.812 135.908 323.816 138.01 328.486C140.112 333.155 139.801 336.656 139.383 337.822C139.564 338.335 138.887 339.679 137.419 341.717L133.913 347.085C131.284 350.427 123.076 366.832 119.03 376.833C117.01 381.824 112.836 394.522 112.76 395.904L109.619 409.18C109.093 411.842 107.373 421.619 105.798 430.906C102.019 453.178 100.15 461.019 95.6696 473.412C90.0975 488.825 81.7933 504.729 73.6196 515.643L71.7634 518.121L73.8465 520.074L75.9296 522.026L78.9472 519.286C101.884 498.465 128.564 483.491 160.125 473.724C163.697 472.618 167.707 471.365 169.034 470.939C170.362 470.513 177.227 468.444 184.292 466.343C213.39 457.685 227.73 452.412 241.698 445.236C256.072 437.851 268.065 429.139 275.57 420.63C278.547 417.256 278.774 416.87 278.194 416.173C277.679 415.554 275.958 415.913 269.064 418.077C260.07 420.899 247.982 424.278 231.766 428.503C208.42 434.585 199.189 437.191 185.282 441.626C172.391 445.737 147.747 455.806 145.637 457.823C145.297 458.148 145.201 458.112 145.352 457.718C145.818 456.507 180.983 430.878 193.677 422.499C215.913 407.82 228.804 401.313 254.751 391.67C282.245 381.452 293.675 376.444 337.674 355.336C351.819 348.55 364.684 342.386 366.261 341.637C367.839 340.889 370.52 339.605 372.218 338.784C373.916 337.962 378.091 335.963 381.496 334.34C388.557 330.975 389.632 330.135 388.382 328.963C387.86 328.474 387.113 328.35 386.412 328.635C381.9 330.472 370.807 330.957 357.358 329.906C351.652 329.46 345.035 329.067 342.654 329.034C315.447 328.642 289.12 338.585 249.299 364.29C219.718 383.385 186.289 409.536 151.573 440.74C135.898 454.829 135.866 454.833 148.677 441.062C168.335 419.933 188.164 401.827 211.774 383.447C249.661 353.951 288.396 330.559 333.728 309.796C364.435 295.732 373.112 291.556 383.205 285.982C415.15 268.342 430.73 253.755 453.447 220.216C455.447 217.265 458.039 213.469 459.209 211.782C462.885 206.48 461.914 205.536 455.437 208.115C453.02 209.077 448.425 210.903 445.225 212.173C429.515 218.405 425.182 220.239 413.58 225.558C389.8 236.461 374.318 246.095 338.403 272.336C295.108 303.97 269.953 322.942 254.217 335.831C251.47 338.082 248.954 339.949 248.626 339.981C248.299 340.013 248.626 339.561 249.355 338.977C254.507 334.841 290.472 303.451 306.368 289.215C313.671 282.675 318.776 278.032 338.707 259.799C341.313 257.416 346.342 252.715 349.883 249.353C353.425 245.991 358.525 241.204 361.217 238.717C369.594 230.976 394.554 204.805 401.149 196.846C423.781 169.538 437.936 144.583 445.698 118.309C453.026 93.5042 453.855 70.1993 448.299 45.1577C447.649 42.2284 447.008 39.7298 446.875 39.6049C446.741 39.4797 446.487 38.671 446.311 37.8075C445.826 35.431 443.388 28.9141 442.766 28.3309C441.712 27.3426 440.823 28.5234 438.982 33.3585C419.273 85.1292 409.501 108.972 397.358 134.918C372.245 188.578 341.418 236.303 303.817 279.738C294.228 290.815 275.162 311.25 274.181 311.503C273.8 311.601 276.493 308.066 280.165 303.649C302.671 276.575 320.487 247.51 331.786 219.434C337.699 204.74 342.388 187.835 345.126 171.334C346.297 164.277 348.072 151.144 348.405 147.076C350.302 123.882 351.315 105.262 350.711 104.696C349.945 103.978 348.765 104.549 345.463 107.236C328.388 121.135 313.886 139.863 304.326 160.362C302.832 163.566 301.503 166.191 301.373 166.195C301.242 166.199 288.306 204.126 271.519 246.431L262.974 264.911C238.608 317.61 221.625 348.09 199.941 378.038C193.293 387.219 181.818 400.588 181.135 399.947C180.884 399.712 181.346 398.894 182.319 397.851Z" fill="#849187"/>
</g>
<defs>
<filter id="filter0_f_705_3" x="43.7632" y="0.0090332" width="445.576" height="550.017" filterUnits="userSpaceOnUse" color-interpolation-filters="sRGB">
<feFlood flood-opacity="0" result="BackgroundImageFix"/>
<feBlend mode="normal" in="SourceGraphic" in2="BackgroundImageFix" result="shape"/>
<feGaussianBlur stdDeviation="14" result="effect1_foregroundBlur_705_3"/>
</filter>
</defs>
</svg>
