<svg width="198" height="88" viewBox="0 0 198 88" fill="none" xmlns="http://www.w3.org/2000/svg">
<path d="M93.9892 70.8281H93.3219L90.6145 65.3751H83.026L80.3758 70.8281H79.7084L86.8393 56.1851L93.9892 70.8281ZM90.3857 64.8222L86.8012 57.5579L83.2929 64.8222H90.3857ZM96.6867 56.5283H97.3159V64.8222H107.116V56.5283H107.745V70.8281H107.116V65.3751H97.3159V70.8281H96.6867V56.5283ZM124.72 70.8281H124.052L121.345 65.3751H113.757L111.106 70.8281H110.439L117.57 56.1851L124.72 70.8281ZM121.116 64.8222L117.532 57.5579L114.023 64.8222H121.116ZM132.788 71.2095C131.453 71.2095 130.227 70.8853 129.108 70.2371C127.99 69.5761 127.1 68.6736 126.439 67.5296C125.791 66.3729 125.466 65.0764 125.466 63.6401C125.466 62.2546 125.803 60.9898 126.477 59.8458C127.163 58.7018 128.072 57.7994 129.204 57.1384C130.348 56.4774 131.561 56.1469 132.845 56.1469C133.735 56.1469 134.44 56.2296 134.962 56.3948C135.483 56.5473 136.087 56.8206 136.773 57.2147V57.9201C136.125 57.4752 135.521 57.1638 134.962 56.9859C134.415 56.7952 133.729 56.6999 132.902 56.6999C131.644 56.6999 130.494 57.024 129.451 57.6723C128.422 58.3078 127.602 59.1658 126.992 60.2462C126.394 61.3139 126.096 62.4643 126.096 63.6973C126.096 64.9429 126.401 66.0996 127.011 67.1674C127.621 68.2351 128.428 69.0867 129.432 69.7223C130.449 70.3451 131.542 70.6565 132.712 70.6565C133.551 70.6565 134.282 70.5612 134.904 70.3705C135.527 70.1672 136.15 69.8557 136.773 69.4363V70.1417C136.163 70.5104 135.534 70.7773 134.885 70.9425C134.25 71.1205 133.551 71.2095 132.788 71.2095ZM142.247 57.0812H138.949V56.5283H146.137V57.0812H142.877V70.8281H142.247V57.0812ZM160.547 70.8281H159.88L157.172 65.3751H149.584L146.933 70.8281H146.266L153.397 56.1851L160.547 70.8281ZM156.943 64.8222L153.359 57.5579L149.851 64.8222H156.943ZM168.615 71.2095C167.28 71.2095 166.054 70.8853 164.935 70.2371C163.817 69.5761 162.927 68.6736 162.266 67.5296C161.618 66.3729 161.294 65.0764 161.294 63.6401C161.294 62.2546 161.63 60.9898 162.304 59.8458C162.991 58.7018 163.899 57.7994 165.031 57.1384C166.175 56.4774 167.389 56.1469 168.672 56.1469C169.562 56.1469 170.268 56.2296 170.789 56.3948C171.31 56.5473 171.914 56.8206 172.6 57.2147V57.9201C171.952 57.4752 171.348 57.1638 170.789 56.9859C170.242 56.7952 169.556 56.6999 168.73 56.6999C167.471 56.6999 166.321 57.024 165.278 57.6723C164.249 58.3078 163.429 59.1658 162.819 60.2462C162.222 61.3139 161.923 62.4643 161.923 63.6973C161.923 64.9429 162.228 66.0996 162.838 67.1674C163.448 68.2351 164.255 69.0867 165.259 69.7223C166.276 70.3451 167.369 70.6565 168.539 70.6565C169.378 70.6565 170.109 70.5612 170.732 70.3705C171.354 70.1672 171.977 69.8557 172.6 69.4363V70.1417C171.99 70.5104 171.361 70.7773 170.712 70.9425C170.077 71.1205 169.378 71.2095 168.615 71.2095ZM175.806 56.5283H176.435V69.8557L186.368 56.5283H186.998V70.8281H186.368V57.4625L176.397 70.8281H175.806V56.5283ZM194.592 65.642H194.344C192.946 65.642 191.846 65.2416 191.046 64.4409C190.245 63.6273 189.844 62.5088 189.844 61.0852C189.844 60.2462 190.048 59.4772 190.454 58.7781C190.874 58.079 191.44 57.5324 192.151 57.1384C192.863 56.7316 193.645 56.5283 194.497 56.5283H195.316V70.8281H194.706V66.3094L190.454 70.8281H189.673L194.592 65.642ZM194.706 65.0891V57.0812H194.458C193.721 57.0812 193.047 57.2591 192.437 57.6151C191.827 57.971 191.344 58.4603 190.988 59.0832C190.632 59.6933 190.454 60.367 190.454 61.1042C190.454 62.3626 190.804 63.3414 191.503 64.0405C192.202 64.7396 193.156 65.0891 194.363 65.0891H194.706Z" fill="#343434"/>
<path d="M93.9892 70.8281V70.9533H94.1896L94.1017 70.7732L93.9892 70.8281ZM93.3219 70.8281L93.2098 70.8838L93.2443 70.9533H93.3219V70.8281ZM90.6145 65.3751L90.7265 65.3195L90.692 65.25H90.6145V65.3751ZM83.026 65.3751V65.25H82.9477L82.9135 65.3204L83.026 65.3751ZM80.3758 70.8281V70.9533H80.4541L80.4883 70.8828L80.3758 70.8281ZM79.7084 70.8281L79.5959 70.7733L79.5083 70.9533H79.7084V70.8281ZM86.8393 56.1851L86.9517 56.1302L86.8391 55.8996L86.7268 56.1303L86.8393 56.1851ZM90.3857 64.8222V64.9473H90.5869L90.4979 64.7668L90.3857 64.8222ZM86.8012 57.5579L86.9134 57.5025L86.7999 57.2726L86.6885 57.5034L86.8012 57.5579ZM83.2929 64.8222L83.1802 64.7678L83.0935 64.9473H83.2929V64.8222ZM93.9892 70.703H93.3219V70.9533H93.9892V70.703ZM93.434 70.7725L90.7265 65.3195L90.5024 65.4308L93.2098 70.8838L93.434 70.7725ZM90.6145 65.25H83.026V65.5002H90.6145V65.25ZM82.9135 65.3204L80.2632 70.7734L80.4883 70.8828L83.1385 65.4298L82.9135 65.3204ZM80.3758 70.703H79.7084V70.9533H80.3758V70.703ZM79.8209 70.8829L86.9518 56.2399L86.7268 56.1303L79.5959 70.7733L79.8209 70.8829ZM86.7268 56.24L93.8768 70.883L94.1017 70.7732L86.9517 56.1302L86.7268 56.24ZM90.4979 64.7668L86.9134 57.5025L86.6889 57.6132L90.2734 64.8776L90.4979 64.7668ZM86.6885 57.5034L83.1802 64.7678L83.4056 64.8766L86.9138 57.6123L86.6885 57.5034ZM83.2929 64.9473H90.3857V64.6971H83.2929V64.9473ZM96.6867 56.5283V56.4031H96.5616V56.5283H96.6867ZM97.3159 56.5283H97.441V56.4031H97.3159V56.5283ZM97.3159 64.8222H97.1907V64.9473H97.3159V64.8222ZM107.116 64.8222V64.9473H107.241V64.8222H107.116ZM107.116 56.5283V56.4031H106.991V56.5283H107.116ZM107.745 56.5283H107.87V56.4031H107.745V56.5283ZM107.745 70.8281V70.9533H107.87V70.8281H107.745ZM107.116 70.8281H106.991V70.9533H107.116V70.8281ZM107.116 65.3751H107.241V65.25H107.116V65.3751ZM97.3159 65.3751V65.25H97.1907V65.3751H97.3159ZM97.3159 70.8281V70.9533H97.441V70.8281H97.3159ZM96.6867 70.8281H96.5616V70.9533H96.6867V70.8281ZM96.6867 56.6534H97.3159V56.4031H96.6867V56.6534ZM97.1907 56.5283V64.8222H97.441V56.5283H97.1907ZM97.3159 64.9473H107.116V64.6971H97.3159V64.9473ZM107.241 64.8222V56.5283H106.991V64.8222H107.241ZM107.116 56.6534H107.745V56.4031H107.116V56.6534ZM107.62 56.5283V70.8281H107.87V56.5283H107.62ZM107.745 70.703H107.116V70.9533H107.745V70.703ZM107.241 70.8281V65.3751H106.991V70.8281H107.241ZM107.116 65.25H97.3159V65.5002H107.116V65.25ZM97.1907 65.3751V70.8281H97.441V65.3751H97.1907ZM97.3159 70.703H96.6867V70.9533H97.3159V70.703ZM96.8118 70.8281V56.5283H96.5616V70.8281H96.8118ZM124.72 70.8281V70.9533H124.92L124.832 70.7732L124.72 70.8281ZM124.052 70.8281L123.94 70.8838L123.975 70.9533H124.052V70.8281ZM121.345 65.3751L121.457 65.3195L121.423 65.25H121.345V65.3751ZM113.757 65.3751V65.25H113.678L113.644 65.3204L113.757 65.3751ZM111.106 70.8281V70.9533H111.185L111.219 70.8828L111.106 70.8281ZM110.439 70.8281L110.326 70.7733L110.239 70.9533H110.439V70.8281ZM117.57 56.1851L117.682 56.1302L117.57 55.8996L117.457 56.1303L117.57 56.1851ZM121.116 64.8222V64.9473H121.317L121.228 64.7668L121.116 64.8222ZM117.532 57.5579L117.644 57.5025L117.53 57.2726L117.419 57.5034L117.532 57.5579ZM114.023 64.8222L113.911 64.7678L113.824 64.9473H114.023V64.8222ZM124.72 70.703H124.052V70.9533H124.72V70.703ZM124.165 70.7725L121.457 65.3195L121.233 65.4308L123.94 70.8838L124.165 70.7725ZM121.345 65.25H113.757V65.5002H121.345V65.25ZM113.644 65.3204L110.994 70.7734L111.219 70.8828L113.869 65.4298L113.644 65.3204ZM111.106 70.703H110.439V70.9533H111.106V70.703ZM110.551 70.8829L117.682 56.2399L117.457 56.1303L110.326 70.7733L110.551 70.8829ZM117.457 56.24L124.607 70.883L124.832 70.7732L117.682 56.1302L117.457 56.24ZM121.228 64.7668L117.644 57.5025L117.419 57.6132L121.004 64.8776L121.228 64.7668ZM117.419 57.5034L113.911 64.7678L114.136 64.8766L117.644 57.6123L117.419 57.5034ZM114.023 64.9473H121.116V64.6971H114.023V64.9473ZM129.108 70.2371L129.045 70.3448L129.045 70.3453L129.108 70.2371ZM126.439 67.5296L126.33 67.5908L126.331 67.5922L126.439 67.5296ZM126.477 59.8458L126.37 59.7814L126.369 59.7823L126.477 59.8458ZM129.204 57.1384L129.141 57.03L129.14 57.0303L129.204 57.1384ZM134.962 56.3948L134.924 56.5141L134.926 56.5149L134.962 56.3948ZM136.773 57.2147H136.898V57.1422L136.835 57.1061L136.773 57.2147ZM136.773 57.9201L136.702 58.0233L136.898 58.1577V57.9201H136.773ZM134.962 56.9859L134.92 57.104L134.924 57.1051L134.962 56.9859ZM129.451 57.6723L129.517 57.7787L129.517 57.7785L129.451 57.6723ZM126.992 60.2462L126.883 60.1847L126.883 60.1851L126.992 60.2462ZM127.011 67.1674L126.902 67.2294L127.011 67.1674ZM129.432 69.7223L129.365 69.828L129.367 69.829L129.432 69.7223ZM134.904 70.3705L134.941 70.4902L134.943 70.4895L134.904 70.3705ZM136.773 69.4363H136.898V69.2011L136.703 69.3325L136.773 69.4363ZM136.773 70.1417L136.838 70.2488L136.898 70.2123V70.1417H136.773ZM134.885 70.9425L134.854 70.8212L134.852 70.822L134.885 70.9425ZM132.788 71.0843C131.475 71.0843 130.27 70.7656 129.171 70.1288L129.045 70.3453C130.184 71.005 131.432 71.3346 132.788 71.3346V71.0843ZM129.172 70.1293C128.072 69.4795 127.198 68.5927 126.547 67.467L126.331 67.5922C127.002 68.7545 127.907 69.6727 129.045 70.3448L129.172 70.1293ZM126.548 67.4684C125.911 66.332 125.592 65.0568 125.592 63.6401H125.341C125.341 65.096 125.67 66.4139 126.33 67.5908L126.548 67.4684ZM125.592 63.6401C125.592 62.2759 125.923 61.0332 126.585 59.9093L126.369 59.7823C125.684 60.9464 125.341 62.2332 125.341 63.6401H125.592ZM126.584 59.9102C127.26 58.7839 128.154 57.8966 129.267 57.2464L129.14 57.0303C127.991 57.7021 127.067 58.6198 126.37 59.7815L126.584 59.9102ZM129.266 57.2467C130.392 56.5964 131.584 56.2721 132.845 56.2721V56.0218C131.539 56.0218 130.303 56.3584 129.141 57.03L129.266 57.2467ZM132.845 56.2721C133.729 56.2721 134.42 56.3544 134.924 56.5141L134.999 56.2755C134.461 56.1047 133.741 56.0218 132.845 56.0218V56.2721ZM134.926 56.5149C135.435 56.6637 136.029 56.932 136.711 57.3232L136.835 57.1061C136.144 56.7092 135.531 56.431 134.997 56.2747L134.926 56.5149ZM136.648 57.2147V57.9201H136.898V57.2147H136.648ZM136.844 57.8169C136.189 57.3673 135.574 57.0493 135 56.8666L134.924 57.1051C135.468 57.2783 136.061 57.5831 136.702 58.0233L136.844 57.8169ZM135.003 56.8677C134.439 56.6709 133.737 56.5747 132.902 56.5747V56.825C133.72 56.825 134.391 56.9195 134.92 57.104L135.003 56.8677ZM132.902 56.5747C131.621 56.5747 130.448 56.9051 129.385 57.566L129.517 57.7785C130.539 57.1429 131.667 56.825 132.902 56.825V56.5747ZM129.386 57.5658C128.338 58.2127 127.503 59.0864 126.883 60.1847L127.101 60.3078C127.701 59.2452 128.506 58.4029 129.517 57.7787L129.386 57.5658ZM126.883 60.1851C126.275 61.2717 125.971 62.4431 125.971 63.6973H126.221C126.221 62.4855 126.514 61.3562 127.101 60.3073L126.883 60.1851ZM125.971 63.6973C125.971 64.9644 126.281 66.1426 126.902 67.2294L127.12 67.1053C126.52 66.0567 126.221 64.9215 126.221 63.6973H125.971ZM126.902 67.2294C127.522 68.3143 128.343 69.1811 129.365 69.828L129.499 69.6165C128.513 68.9923 127.72 68.1559 127.12 67.1053L126.902 67.2294ZM129.367 69.829C130.403 70.4636 131.519 70.7817 132.712 70.7817V70.5314C131.566 70.5314 130.495 70.2266 129.498 69.6156L129.367 69.829ZM132.712 70.7817C133.56 70.7817 134.303 70.6853 134.941 70.4902L134.868 70.2509C134.26 70.437 133.542 70.5314 132.712 70.5314V70.7817ZM134.943 70.4895C135.579 70.282 136.212 69.9651 136.843 69.5401L136.703 69.3325C136.088 69.7464 135.476 70.0523 134.866 70.2516L134.943 70.4895ZM136.648 69.4363V70.1417H136.898V69.4363H136.648ZM136.708 70.0346C136.108 70.3973 135.49 70.6593 134.854 70.8213L134.916 71.0638C135.577 70.8953 136.218 70.6234 136.838 70.2488L136.708 70.0346ZM134.852 70.822C134.229 70.9965 133.541 71.0843 132.788 71.0843V71.3346C133.56 71.3346 134.271 71.2445 134.919 71.063L134.852 70.822ZM142.247 57.0812H142.373V56.9561H142.247V57.0812ZM138.949 57.0812H138.824V57.2063H138.949V57.0812ZM138.949 56.5283V56.4031H138.824V56.5283H138.949ZM146.137 56.5283H146.262V56.4031H146.137V56.5283ZM146.137 57.0812V57.2063H146.262V57.0812H146.137ZM142.877 57.0812V56.9561H142.751V57.0812H142.877ZM142.877 70.8281V70.9533H143.002V70.8281H142.877ZM142.247 70.8281H142.122V70.9533H142.247V70.8281ZM142.247 56.9561H138.949V57.2063H142.247V56.9561ZM139.074 57.0812V56.5283H138.824V57.0812H139.074ZM138.949 56.6534H146.137V56.4031H138.949V56.6534ZM146.012 56.5283V57.0812H146.262V56.5283H146.012ZM146.137 56.9561H142.877V57.2063H146.137V56.9561ZM142.751 57.0812V70.8281H143.002V57.0812H142.751ZM142.877 70.703H142.247V70.9533H142.877V70.703ZM142.373 70.8281V57.0812H142.122V70.8281H142.373ZM160.547 70.8281V70.9533H160.747L160.659 70.7732L160.547 70.8281ZM159.88 70.8281L159.767 70.8838L159.802 70.9533H159.88V70.8281ZM157.172 65.3751L157.284 65.3195L157.25 65.25H157.172V65.3751ZM149.584 65.3751V65.25H149.505L149.471 65.3204L149.584 65.3751ZM146.933 70.8281V70.9533H147.012L147.046 70.8828L146.933 70.8281ZM146.266 70.8281L146.154 70.7733L146.066 70.9533H146.266V70.8281ZM153.397 56.1851L153.509 56.1302L153.397 55.8996L153.284 56.1303L153.397 56.1851ZM156.943 64.8222V64.9473H157.145L157.056 64.7668L156.943 64.8222ZM153.359 57.5579L153.471 57.5025L153.358 57.2726L153.246 57.5034L153.359 57.5579ZM149.851 64.8222L149.738 64.7678L149.651 64.9473H149.851V64.8222ZM160.547 70.703H159.88V70.9533H160.547V70.703ZM159.992 70.7725L157.284 65.3195L157.06 65.4308L159.767 70.8838L159.992 70.7725ZM157.172 65.25H149.584V65.5002H157.172V65.25ZM149.471 65.3204L146.821 70.7734L147.046 70.8828L149.696 65.4298L149.471 65.3204ZM146.933 70.703H146.266V70.9533H146.933V70.703ZM146.379 70.8829L153.509 56.2399L153.284 56.1303L146.154 70.7733L146.379 70.8829ZM153.285 56.24L160.434 70.883L160.659 70.7732L153.509 56.1302L153.285 56.24ZM157.056 64.7668L153.471 57.5025L153.247 57.6132L156.831 64.8776L157.056 64.7668ZM153.246 57.5034L149.738 64.7678L149.963 64.8766L153.471 57.6123L153.246 57.5034ZM149.851 64.9473H156.943V64.6971H149.851V64.9473ZM164.935 70.2371L164.872 70.3448L164.873 70.3453L164.935 70.2371ZM162.266 67.5296L162.157 67.5908L162.158 67.5922L162.266 67.5296ZM162.304 59.8458L162.197 59.7814L162.196 59.7823L162.304 59.8458ZM165.031 57.1384L164.968 57.03L164.968 57.0303L165.031 57.1384ZM170.789 56.3948L170.751 56.5141L170.754 56.5149L170.789 56.3948ZM172.6 57.2147H172.725V57.1422L172.662 57.1061L172.6 57.2147ZM172.6 57.9201L172.529 58.0233L172.725 58.1577V57.9201H172.6ZM170.789 56.9859L170.747 57.104L170.751 57.1051L170.789 56.9859ZM165.278 57.6723L165.344 57.7787L165.345 57.7785L165.278 57.6723ZM162.819 60.2462L162.71 60.1847L162.71 60.1851L162.819 60.2462ZM162.838 67.1674L162.729 67.2294L162.838 67.1674ZM165.259 69.7223L165.193 69.828L165.194 69.829L165.259 69.7223ZM170.732 70.3705L170.768 70.4902L170.77 70.4895L170.732 70.3705ZM172.6 69.4363H172.725V69.2011L172.53 69.3325L172.6 69.4363ZM172.6 70.1417L172.665 70.2488L172.725 70.2123V70.1417H172.6ZM170.712 70.9425L170.682 70.8212L170.679 70.822L170.712 70.9425ZM168.615 71.0843C167.302 71.0843 166.097 70.7656 164.998 70.1288L164.873 70.3453C166.011 71.005 167.259 71.3346 168.615 71.3346V71.0843ZM164.999 70.1293C163.899 69.4795 163.025 68.5927 162.374 67.467L162.158 67.5922C162.829 68.7545 163.734 69.6727 164.872 70.3448L164.999 70.1293ZM162.375 67.4684C161.738 66.332 161.419 65.0568 161.419 63.6401H161.168C161.168 65.096 161.497 66.4139 162.157 67.5908L162.375 67.4684ZM161.419 63.6401C161.419 62.2759 161.75 61.0332 162.412 59.9093L162.196 59.7823C161.511 60.9464 161.168 62.2332 161.168 63.6401H161.419ZM162.411 59.9102C163.087 58.7839 163.981 57.8966 165.094 57.2464L164.968 57.0303C163.818 57.7021 162.894 58.6198 162.197 59.7815L162.411 59.9102ZM165.093 57.2467C166.219 56.5964 167.411 56.2721 168.672 56.2721V56.0218C167.366 56.0218 166.13 56.3584 164.968 57.03L165.093 57.2467ZM168.672 56.2721C169.556 56.2721 170.247 56.3544 170.751 56.5141L170.827 56.2755C170.288 56.1047 169.568 56.0218 168.672 56.0218V56.2721ZM170.754 56.5149C171.262 56.6637 171.856 56.932 172.538 57.3232L172.662 57.1061C171.971 56.7092 171.358 56.431 170.824 56.2747L170.754 56.5149ZM172.475 57.2147V57.9201H172.725V57.2147H172.475ZM172.671 57.8169C172.016 57.3673 171.401 57.0493 170.827 56.8666L170.751 57.1051C171.295 57.2783 171.888 57.5831 172.529 58.0233L172.671 57.8169ZM170.83 56.8677C170.266 56.6709 169.564 56.5747 168.73 56.5747V56.825C169.547 56.825 170.219 56.9195 170.747 57.104L170.83 56.8677ZM168.73 56.5747C167.448 56.5747 166.275 56.9051 165.212 57.566L165.345 57.7785C166.367 57.1429 167.494 56.825 168.73 56.825V56.5747ZM165.213 57.5658C164.165 58.2127 163.33 59.0864 162.71 60.1847L162.928 60.3078C163.528 59.2452 164.333 58.4029 165.344 57.7787L165.213 57.5658ZM162.71 60.1851C162.102 61.2717 161.798 62.4431 161.798 63.6973H162.048C162.048 62.4855 162.341 61.3562 162.928 60.3073L162.71 60.1851ZM161.798 63.6973C161.798 64.9644 162.108 66.1426 162.729 67.2294L162.947 67.1053C162.347 66.0567 162.048 64.9215 162.048 63.6973H161.798ZM162.729 67.2294C163.349 68.3143 164.17 69.1811 165.193 69.828L165.326 69.6165C164.34 68.9923 163.547 68.1559 162.947 67.1053L162.729 67.2294ZM165.194 69.829C166.23 70.4636 167.346 70.7817 168.539 70.7817V70.5314C167.393 70.5314 166.322 70.2266 165.325 69.6156L165.194 69.829ZM168.539 70.7817C169.387 70.7817 170.131 70.6853 170.768 70.4902L170.695 70.2509C170.087 70.437 169.369 70.5314 168.539 70.5314V70.7817ZM170.77 70.4895C171.406 70.282 172.039 69.9651 172.67 69.5401L172.53 69.3325C171.916 69.7464 171.303 70.0523 170.693 70.2516L170.77 70.4895ZM172.475 69.4363V70.1417H172.725V69.4363H172.475ZM172.535 70.0346C171.935 70.3973 171.317 70.6593 170.682 70.8213L170.743 71.0638C171.404 70.8953 172.045 70.6234 172.665 70.2488L172.535 70.0346ZM170.679 70.822C170.056 70.9965 169.368 71.0843 168.615 71.0843V71.3346C169.387 71.3346 170.098 71.2445 170.746 71.063L170.679 70.822ZM175.806 56.5283V56.4031H175.68V56.5283H175.806ZM176.435 56.5283H176.56V56.4031H176.435V56.5283ZM176.435 69.8557H176.31V70.233L176.535 69.9305L176.435 69.8557ZM186.368 56.5283V56.4031H186.306L186.268 56.4535L186.368 56.5283ZM186.998 56.5283H187.123V56.4031H186.998V56.5283ZM186.998 70.8281V70.9533H187.123V70.8281H186.998ZM186.368 70.8281H186.243V70.9533H186.368V70.8281ZM186.368 57.4625H186.494V57.0856L186.268 57.3877L186.368 57.4625ZM176.397 70.8281V70.9533H176.459L176.497 70.903L176.397 70.8281ZM175.806 70.8281H175.68V70.9533H175.806V70.8281ZM175.806 56.6534H176.435V56.4031H175.806V56.6534ZM176.31 56.5283V69.8557H176.56V56.5283H176.31ZM176.535 69.9305L186.469 56.603L186.268 56.4535L176.334 69.781L176.535 69.9305ZM186.368 56.6534H186.998V56.4031H186.368V56.6534ZM186.872 56.5283V70.8281H187.123V56.5283H186.872ZM186.998 70.703H186.368V70.9533H186.998V70.703ZM186.494 70.8281V57.4625H186.243V70.8281H186.494ZM186.268 57.3877L176.296 70.7533L176.497 70.903L186.469 57.5373L186.268 57.3877ZM176.397 70.703H175.806V70.9533H176.397V70.703ZM175.931 70.8281V56.5283H175.68V70.8281H175.931ZM194.592 65.642L194.683 65.7282L194.883 65.5169H194.592V65.642ZM191.046 64.4409L190.956 64.5286L190.957 64.5293L191.046 64.4409ZM190.454 58.7781L190.347 58.7137L190.346 58.7152L190.454 58.7781ZM192.151 57.1384L192.212 57.2479L192.213 57.247L192.151 57.1384ZM195.316 56.5283H195.442V56.4031H195.316V56.5283ZM195.316 70.8281V70.9533H195.442V70.8281H195.316ZM194.706 70.8281H194.581V70.9533H194.706V70.8281ZM194.706 66.3094H194.831V65.9938L194.615 66.2236L194.706 66.3094ZM190.454 70.8281V70.9533H190.509L190.546 70.9139L190.454 70.8281ZM189.673 70.8281L189.582 70.742L189.382 70.9533H189.673V70.8281ZM194.706 65.0891V65.2142H194.831V65.0891H194.706ZM194.706 57.0812H194.831V56.9561H194.706V57.0812ZM190.988 59.0832L191.096 59.1462L191.097 59.1453L190.988 59.0832ZM191.503 64.0405L191.415 64.1289L191.503 64.0405ZM194.592 65.5169H194.344V65.7672H194.592V65.5169ZM194.344 65.5169C192.971 65.5169 191.906 65.1244 191.134 64.3524L190.957 64.5293C191.787 65.3588 192.921 65.7672 194.344 65.7672V65.5169ZM191.135 64.3531C190.362 63.5684 189.969 62.4845 189.969 61.0852H189.719C189.719 62.5331 190.127 63.6863 190.956 64.5286L191.135 64.3531ZM189.969 61.0852C189.969 60.2675 190.167 59.5203 190.563 58.841L190.346 58.7152C189.928 59.4341 189.719 60.225 189.719 61.0852H189.969ZM190.562 58.8425C190.97 58.1622 191.519 57.6312 192.212 57.2479L192.091 57.0289C191.36 57.4336 190.778 57.9958 190.347 58.7137L190.562 58.8425ZM192.213 57.247C192.906 56.8515 193.666 56.6534 194.497 56.6534V56.4031C193.624 56.4031 192.821 56.6118 192.089 57.0297L192.213 57.247ZM194.497 56.6534H195.316V56.4031H194.497V56.6534ZM195.191 56.5283V70.8281H195.442V56.5283H195.191ZM195.316 70.703H194.706V70.9533H195.316V70.703ZM194.831 70.8281V66.3094H194.581V70.8281H194.831ZM194.615 66.2236L190.363 70.7424L190.546 70.9139L194.797 66.3951L194.615 66.2236ZM190.454 70.703H189.673V70.9533H190.454V70.703ZM189.764 70.9142L194.683 65.7282L194.501 65.5559L189.582 70.742L189.764 70.9142ZM194.831 65.0891V57.0812H194.581V65.0891H194.831ZM194.706 56.9561H194.458V57.2063H194.706V56.9561ZM194.458 56.9561C193.7 56.9561 193.004 57.1394 192.374 57.507L192.5 57.7231C193.091 57.3789 193.742 57.2063 194.458 57.2063V56.9561ZM192.374 57.507C191.745 57.8741 191.246 58.3795 190.88 59.0211L191.097 59.1453C191.442 58.5412 191.91 58.0678 192.5 57.7231L192.374 57.507ZM190.88 59.0201C190.513 59.6502 190.329 60.3458 190.329 61.1042H190.58C190.58 60.3881 190.752 59.7364 191.096 59.1462L190.88 59.0201ZM190.329 61.1042C190.329 62.3863 190.686 63.4004 191.415 64.1289L191.592 63.952C190.922 63.2823 190.58 62.3389 190.58 61.1042H190.329ZM191.415 64.1289C192.142 64.8565 193.13 65.2142 194.363 65.2142V64.964C193.181 64.964 192.262 64.6226 191.592 63.952L191.415 64.1289ZM194.363 65.2142H194.706V64.964H194.363V65.2142Z" fill="black"/>
<path d="M80.5082 34.7001H85.6371V35.2531H81.1374V43.0322H84.8935V43.5851H81.1374V48.4471H85.6371V49H80.5082V34.7001ZM88.1924 34.7001H88.8216C90.3215 34.7001 91.4909 35.1005 92.3299 35.9013C93.1688 36.6894 93.5883 37.7508 93.5883 39.0854C93.5883 40.0133 93.3849 40.8395 92.9781 41.5641C92.5714 42.2759 92.0185 42.8288 91.3193 43.2229C90.6202 43.6042 89.8385 43.7949 88.9742 43.7949H88.8216V49H88.1924V34.7001ZM89.0123 43.2419C90.169 43.2419 91.116 42.886 91.8532 42.1742C92.5904 41.4497 92.9591 40.4328 92.9591 39.1236C92.9591 37.8779 92.6095 36.9246 91.9104 36.2636C91.224 35.5899 90.2453 35.2531 88.9742 35.2531H88.8216V43.2419H89.0123ZM103.169 49.3813C101.834 49.3813 100.595 49.0318 99.4509 48.3327C98.3069 47.6336 97.3981 46.7057 96.7244 45.549C96.0634 44.3796 95.7329 43.1275 95.7329 41.7929C95.7329 40.4709 96.0698 39.238 96.7435 38.094C97.4171 36.9373 98.326 36.0221 99.47 35.3484C100.614 34.662 101.853 34.3188 103.188 34.3188C104.535 34.3188 105.775 34.6556 106.906 35.3293C108.037 36.003 108.933 36.9182 109.594 38.0749C110.268 39.2189 110.605 40.4582 110.605 41.7929C110.605 43.1657 110.268 44.4368 109.594 45.6062C108.933 46.7629 108.031 47.6844 106.887 48.3708C105.756 49.0445 104.516 49.3813 103.169 49.3813ZM103.169 48.8284C104.389 48.8284 105.52 48.517 106.563 47.8941C107.605 47.2586 108.431 46.407 109.041 45.3392C109.664 44.2588 109.976 43.0894 109.976 41.831C109.976 40.5853 109.671 39.4286 109.06 38.3609C108.45 37.2932 107.624 36.4479 106.582 35.8251C105.539 35.1895 104.408 34.8717 103.188 34.8717C101.955 34.8717 100.817 35.1895 99.775 35.8251C98.7327 36.4479 97.9002 37.2932 97.2773 38.3609C96.6672 39.4286 96.3621 40.5853 96.3621 41.831C96.3621 43.0894 96.6672 44.2588 97.2773 45.3392C97.9002 46.407 98.7327 47.2586 99.775 47.8941C100.817 48.517 101.949 48.8284 103.169 48.8284ZM113.766 34.7001H114.376C115.38 34.7001 116.117 34.9353 116.588 35.4056C117.058 35.8632 117.293 36.5432 117.293 37.4457C117.293 37.9669 117.141 38.4689 116.836 38.952C116.53 39.4223 116.162 39.74 115.73 39.9053C116.823 40.0832 117.668 40.5408 118.266 41.2781C118.863 42.0153 119.162 42.9813 119.162 44.1762C119.162 45.1295 118.952 45.9748 118.532 46.712C118.113 47.4365 117.535 48.0022 116.797 48.4089C116.073 48.803 115.266 49 114.376 49H113.766V34.7001ZM114.528 39.7337C115.139 39.7337 115.653 39.5112 116.073 39.0664C116.492 38.6215 116.702 38.0749 116.702 37.4266C116.702 36.7021 116.524 36.1555 116.168 35.7869C115.825 35.4183 115.278 35.234 114.528 35.234H114.376V39.7337H114.528ZM114.528 48.4661C115.278 48.4661 115.958 48.2882 116.569 47.9323C117.179 47.5637 117.662 47.0552 118.018 46.407C118.374 45.7587 118.551 45.0278 118.551 44.2143C118.551 42.9051 118.202 41.92 117.503 41.259C116.816 40.5853 115.825 40.2485 114.528 40.2485H114.376V48.4661H114.528ZM134.649 49H133.982L131.274 43.547H123.686L121.036 49H120.368L127.499 34.3569L134.649 49ZM131.045 42.9941L127.461 35.7297L123.953 42.9941H131.045Z" fill="#343434"/>
<path d="M80.5082 34.7001V34.575H80.3831V34.7001H80.5082ZM85.6371 34.7001H85.7622V34.575H85.6371V34.7001ZM85.6371 35.2531V35.3782H85.7622V35.2531H85.6371ZM81.1374 35.2531V35.1279H81.0123V35.2531H81.1374ZM81.1374 43.0322H81.0123V43.1573H81.1374V43.0322ZM84.8935 43.0322H85.0186V42.9071H84.8935V43.0322ZM84.8935 43.5851V43.7102H85.0186V43.5851H84.8935ZM81.1374 43.5851V43.46H81.0123V43.5851H81.1374ZM81.1374 48.4471H81.0123V48.5722H81.1374V48.4471ZM85.6371 48.4471H85.7622V48.3219H85.6371V48.4471ZM85.6371 49V49.1251H85.7622V49H85.6371ZM80.5082 49H80.3831V49.1251H80.5082V49ZM80.5082 34.8253H85.6371V34.575H80.5082V34.8253ZM85.512 34.7001V35.2531H85.7622V34.7001H85.512ZM85.6371 35.1279H81.1374V35.3782H85.6371V35.1279ZM81.0123 35.2531V43.0322H81.2625V35.2531H81.0123ZM81.1374 43.1573H84.8935V42.9071H81.1374V43.1573ZM84.7684 43.0322V43.5851H85.0186V43.0322H84.7684ZM84.8935 43.46H81.1374V43.7102H84.8935V43.46ZM81.0123 43.5851V48.4471H81.2625V43.5851H81.0123ZM81.1374 48.5722H85.6371V48.3219H81.1374V48.5722ZM85.512 48.4471V49H85.7622V48.4471H85.512ZM85.6371 48.8749H80.5082V49.1251H85.6371V48.8749ZM80.6333 49V34.7001H80.3831V49H80.6333ZM88.1924 34.7001V34.575H88.0673V34.7001H88.1924ZM92.3299 35.9013L92.2435 35.9918L92.2442 35.9925L92.3299 35.9013ZM92.9781 41.5641L93.0868 41.6262L93.0872 41.6253L92.9781 41.5641ZM91.3193 43.2229L91.3793 43.3327L91.3808 43.3319L91.3193 43.2229ZM88.8216 43.7949V43.6697H88.6965V43.7949H88.8216ZM88.8216 49V49.1251H88.9468V49H88.8216ZM88.1924 49H88.0673V49.1251H88.1924V49ZM91.8532 42.1742L91.9401 42.2642L91.9409 42.2634L91.8532 42.1742ZM91.9104 36.2636L91.8227 36.3529L91.8244 36.3545L91.9104 36.2636ZM88.8216 35.2531V35.1279H88.6965V35.2531H88.8216ZM88.8216 43.2419H88.6965V43.3671H88.8216V43.2419ZM88.1924 34.8253H88.8216V34.575H88.1924V34.8253ZM88.8216 34.8253C90.2991 34.8253 91.4341 35.2192 92.2435 35.9918L92.4163 35.8108C91.5478 34.9819 90.3439 34.575 88.8216 34.575V34.8253ZM92.2442 35.9925C93.0539 36.7531 93.4631 37.7793 93.4631 39.0854H93.7134C93.7134 37.7223 93.2837 36.6257 92.4155 35.8101L92.2442 35.9925ZM93.4631 39.0854C93.4631 39.9944 93.2641 40.7991 92.869 41.5028L93.0872 41.6253C93.5057 40.88 93.7134 40.0322 93.7134 39.0854H93.4631ZM92.8695 41.502C92.4737 42.1946 91.9369 42.7312 91.2579 43.1138L91.3808 43.3319C92.1 42.9265 92.6691 42.3571 93.0868 41.6262L92.8695 41.502ZM91.2594 43.113C90.5803 43.4835 89.8194 43.6697 88.9742 43.6697V43.92C89.8576 43.92 90.6602 43.7249 91.3793 43.3327L91.2594 43.113ZM88.9742 43.6697H88.8216V43.92H88.9742V43.6697ZM88.6965 43.7949V49H88.9468V43.7949H88.6965ZM88.8216 48.8749H88.1924V49.1251H88.8216V48.8749ZM88.3176 49V34.7001H88.0673V49H88.3176ZM89.0123 43.3671C90.1969 43.3671 91.1765 43.0015 91.9401 42.2642L91.7663 42.0842C91.0555 42.7705 90.1411 43.1168 89.0123 43.1168V43.3671ZM91.9409 42.2634C92.7081 41.5095 93.0842 40.4569 93.0842 39.1236H92.8339C92.8339 40.4087 92.4728 41.3898 91.7655 42.085L91.9409 42.2634ZM93.0842 39.1236C93.0842 37.8542 92.7273 36.8637 91.9964 36.1727L91.8244 36.3545C92.4917 36.9854 92.8339 37.9016 92.8339 39.1236H93.0842ZM91.9981 36.1743C91.2815 35.471 90.2672 35.1279 88.9742 35.1279V35.3782C90.2234 35.3782 91.1665 35.7088 91.8228 36.3529L91.9981 36.1743ZM88.9742 35.1279H88.8216V35.3782H88.9742V35.1279ZM88.6965 35.2531V43.2419H88.9468V35.2531H88.6965ZM88.8216 43.3671H89.0123V43.1168H88.8216V43.3671ZM99.4509 48.3327L99.3857 48.4394L99.4509 48.3327ZM96.7244 45.549L96.6155 45.6105L96.6163 45.6119L96.7244 45.549ZM96.7435 38.094L96.8513 38.1575L96.8516 38.1569L96.7435 38.094ZM99.47 35.3484L99.5335 35.4562L99.5343 35.4557L99.47 35.3484ZM106.906 35.3293L106.842 35.4368L106.906 35.3293ZM109.594 38.0749L109.486 38.137L109.486 38.1384L109.594 38.0749ZM109.594 45.6062L109.486 45.5437L109.486 45.5441L109.594 45.6062ZM106.887 48.3708L106.951 48.4783L106.951 48.4781L106.887 48.3708ZM106.563 47.8941L106.627 48.0016L106.628 48.001L106.563 47.8941ZM109.041 45.3392L108.933 45.2767L108.933 45.2772L109.041 45.3392ZM109.06 38.3609L109.169 38.2988L109.06 38.3609ZM106.582 35.8251L106.517 35.9319L106.518 35.9325L106.582 35.8251ZM99.775 35.8251L99.8392 35.9325L99.8402 35.9319L99.775 35.8251ZM97.2773 38.3609L97.1692 38.2979L97.1687 38.2988L97.2773 38.3609ZM97.2773 45.3392L97.1684 45.4008L97.1692 45.4023L97.2773 45.3392ZM99.775 47.8941L99.7099 48.001L99.7108 48.0016L99.775 47.8941ZM103.169 49.2562C101.857 49.2562 100.641 48.9131 99.5162 48.2259L99.3857 48.4394C100.549 49.1505 101.811 49.5065 103.169 49.5065V49.2562ZM99.5162 48.2259C98.3898 47.5376 97.4957 46.6247 96.8325 45.486L96.6163 45.6119C97.3004 46.7866 98.224 47.7295 99.3857 48.4394L99.5162 48.2259ZM96.8333 45.4874C96.1829 44.3366 95.8581 43.1058 95.8581 41.7929H95.6078C95.6078 43.1492 95.9439 44.4225 96.6155 45.6105L96.8333 45.4874ZM95.8581 41.7929C95.8581 40.4934 96.1889 39.2823 96.8513 38.1575L96.6356 38.0305C95.9507 39.1936 95.6078 40.4485 95.6078 41.7929H95.8581ZM96.8516 38.1569C97.5146 37.0186 98.4081 36.1189 99.5335 35.4562L99.4065 35.2406C98.2439 35.9252 97.3197 36.8559 96.6353 38.031L96.8516 38.1569ZM99.5343 35.4557C100.659 34.781 101.876 34.4439 103.188 34.4439V34.1937C101.831 34.1937 100.569 34.543 99.4056 35.2411L99.5343 35.4557ZM103.188 34.4439C104.513 34.4439 105.73 34.775 106.842 35.4368L106.97 35.2218C105.819 34.5363 104.557 34.1937 103.188 34.1937V34.4439ZM106.842 35.4368C107.954 36.0993 108.835 36.9988 109.486 38.137L109.703 38.0128C109.031 36.8376 108.12 35.9067 106.97 35.2218L106.842 35.4368ZM109.486 38.1384C110.149 39.263 110.48 40.4804 110.48 41.7929H110.73C110.73 40.436 110.387 39.1747 109.702 38.0114L109.486 38.1384ZM110.48 41.7929C110.48 43.1441 110.148 44.3936 109.486 45.5437L109.703 45.6686C110.388 44.4799 110.73 43.1872 110.73 41.7929H110.48ZM109.486 45.5441C108.835 46.6821 107.948 47.5881 106.822 48.2635L106.951 48.4781C108.114 47.7807 109.031 46.8436 109.703 45.6682L109.486 45.5441ZM106.823 48.2633C105.711 48.9252 104.494 49.2562 103.169 49.2562V49.5065C104.538 49.5065 105.8 49.1638 106.951 48.4783L106.823 48.2633ZM103.169 48.9535C104.412 48.9535 105.565 48.636 106.627 48.0016L106.499 47.7867C105.476 48.3979 104.367 48.7033 103.169 48.7033V48.9535ZM106.628 48.001C107.688 47.3543 108.529 46.4873 109.15 45.4013L108.933 45.2772C108.333 46.3267 107.522 47.1628 106.498 47.7873L106.628 48.001ZM109.15 45.4017C109.784 44.3021 110.101 43.1111 110.101 41.831H109.85C109.85 43.0677 109.545 44.2155 108.933 45.2767L109.15 45.4017ZM110.101 41.831C110.101 40.5638 109.79 39.3857 109.169 38.2988L108.952 38.423C109.551 39.4715 109.85 40.6068 109.85 41.831H110.101ZM109.169 38.2988C108.548 37.2127 107.707 36.3517 106.646 35.7176L106.518 35.9325C107.541 36.5441 108.352 37.3737 108.952 38.423L109.169 38.2988ZM106.647 35.7182C105.585 35.0707 104.431 34.7466 103.188 34.7466V34.9969C104.385 34.9969 105.494 35.3083 106.517 35.9319L106.647 35.7182ZM103.188 34.7466C101.932 34.7466 100.772 35.0706 99.7099 35.7182L99.8402 35.9319C100.863 35.3084 101.978 34.9969 103.188 34.9969V34.7466ZM99.7108 35.7176C98.6501 36.3515 97.8025 37.2122 97.1692 38.2979L97.3854 38.424C97.9978 37.3741 98.8154 36.5443 99.8392 35.9325L99.7108 35.7176ZM97.1687 38.2988C96.5476 39.3857 96.237 40.5638 96.237 41.831H96.4873C96.4873 40.6068 96.7868 39.4715 97.386 38.423L97.1687 38.2988ZM96.237 41.831C96.237 43.1106 96.5475 44.3013 97.1684 45.4008L97.3863 45.2777C96.7869 44.2163 96.4873 43.0682 96.4873 41.831H96.237ZM97.1692 45.4023C97.8024 46.4877 98.6496 47.3545 99.7099 48.001L99.8402 47.7873C98.8158 47.1627 97.9979 46.3262 97.3854 45.2762L97.1692 45.4023ZM99.7108 48.0016C100.773 48.636 101.926 48.9535 103.169 48.9535V48.7033C101.971 48.7033 100.862 48.3979 99.8392 47.7867L99.7108 48.0016ZM113.766 34.7001V34.575H113.641V34.7001H113.766ZM116.588 35.4056L116.499 35.4941L116.5 35.4953L116.588 35.4056ZM116.836 38.952L116.941 39.0201L116.941 39.0188L116.836 38.952ZM115.73 39.9053L115.685 39.7884L115.251 39.9542L115.71 40.0288L115.73 39.9053ZM118.266 41.2781L118.363 41.1993L118.266 41.2781ZM118.532 46.712L118.641 46.7747L118.641 46.7739L118.532 46.712ZM116.797 48.4089L116.857 48.5189L116.858 48.5185L116.797 48.4089ZM113.766 49H113.641V49.1251H113.766V49ZM116.073 39.0664L116.164 39.1522L116.073 39.0664ZM116.168 35.7869L116.077 35.8722L116.078 35.8738L116.168 35.7869ZM114.376 35.234V35.1089H114.251V35.234H114.376ZM114.376 39.7337H114.251V39.8588H114.376V39.7337ZM116.569 47.9323L116.632 48.0404L116.633 48.0394L116.569 47.9323ZM118.018 46.407L117.908 46.3467L118.018 46.407ZM117.503 41.259L117.415 41.3483L117.417 41.3499L117.503 41.259ZM114.376 40.2485V40.1234H114.251V40.2485H114.376ZM114.376 48.4661H114.251V48.5913H114.376V48.4661ZM113.766 34.8253H114.376V34.575H113.766V34.8253ZM114.376 34.8253C115.364 34.8253 116.062 35.0569 116.499 35.4941L116.676 35.3171C116.173 34.8137 115.397 34.575 114.376 34.575V34.8253ZM116.5 35.4953C116.939 35.9216 117.168 36.564 117.168 37.4457H117.418C117.418 36.5225 117.177 35.8048 116.675 35.3159L116.5 35.4953ZM117.168 37.4457C117.168 37.941 117.023 38.4201 116.73 38.8851L116.941 39.0188C117.258 38.5178 117.418 37.9928 117.418 37.4457H117.168ZM116.731 38.8839C116.437 39.3367 116.088 39.6345 115.685 39.7884L115.774 40.0222C116.236 39.8456 116.624 39.5078 116.94 39.0201L116.731 38.8839ZM115.71 40.0288C116.778 40.2027 117.593 40.6474 118.168 41.3569L118.363 41.1993C117.743 40.4343 116.868 39.9638 115.75 39.7818L115.71 40.0288ZM118.168 41.3569C118.743 42.0665 119.036 43.0024 119.036 44.1762H119.287C119.287 42.9603 118.982 41.9641 118.363 41.1993L118.168 41.3569ZM119.036 44.1762C119.036 45.1105 118.831 45.934 118.424 46.6501L118.641 46.7739C119.073 46.0156 119.287 45.1485 119.287 44.1762H119.036ZM118.424 46.6493C118.016 47.3541 117.454 47.9035 116.737 48.2994L116.858 48.5185C117.615 48.1008 118.21 47.519 118.641 46.7747L118.424 46.6493ZM116.738 48.299C116.033 48.6823 115.247 48.8749 114.376 48.8749V49.1251C115.285 49.1251 116.113 48.9237 116.857 48.5189L116.738 48.299ZM114.376 48.8749H113.766V49.1251H114.376V48.8749ZM113.891 49V34.7001H113.641V49H113.891ZM114.528 39.8588C115.173 39.8588 115.721 39.6221 116.164 39.1522L115.982 38.9805C115.586 39.4004 115.104 39.6086 114.528 39.6086V39.8588ZM116.164 39.1522C116.607 38.6826 116.827 38.1047 116.827 37.4266H116.577C116.577 38.0451 116.378 38.5604 115.982 38.9805L116.164 39.1522ZM116.827 37.4266C116.827 36.6832 116.645 36.1001 116.258 35.7L116.078 35.8738C116.404 36.211 116.577 36.721 116.577 37.4266H116.827ZM116.26 35.7017C115.883 35.2974 115.296 35.1089 114.528 35.1089V35.3591C115.261 35.3591 115.767 35.5392 116.077 35.8722L116.26 35.7017ZM114.528 35.1089H114.376V35.3591H114.528V35.1089ZM114.251 35.234V39.7337H114.501V35.234H114.251ZM114.376 39.8588H114.528V39.6086H114.376V39.8588ZM114.528 48.5913C115.299 48.5913 116.001 48.4081 116.632 48.0404L116.506 47.8242C115.916 48.1682 115.258 48.341 114.528 48.341V48.5913ZM116.633 48.0394C117.263 47.6589 117.761 47.134 118.127 46.4672L117.908 46.3467C117.562 46.9764 117.094 47.4684 116.504 47.8252L116.633 48.0394ZM118.127 46.4672C118.494 45.7987 118.677 45.0467 118.677 44.2143H118.426C118.426 45.0089 118.253 45.7187 117.908 46.3467L118.127 46.4672ZM118.677 44.2143C118.677 42.8835 118.321 41.8603 117.589 41.1681L117.417 41.3499C118.083 41.9797 118.426 42.9266 118.426 44.2143H118.677ZM117.59 41.1697C116.873 40.466 115.846 40.1234 114.528 40.1234V40.3736C115.804 40.3736 116.759 40.7047 117.415 41.3483L117.59 41.1697ZM114.528 40.1234H114.376V40.3736H114.528V40.1234ZM114.251 40.2485V48.4661H114.501V40.2485H114.251ZM114.376 48.5913H114.528V48.341H114.376V48.5913ZM134.649 49V49.1251H134.849L134.761 48.9451L134.649 49ZM133.982 49L133.87 49.0556L133.904 49.1251H133.982V49ZM131.274 43.547L131.386 43.4913L131.352 43.4219H131.274V43.547ZM123.686 43.547V43.4219H123.607L123.573 43.4923L123.686 43.547ZM121.036 49V49.1251H121.114L121.148 49.0547L121.036 49ZM120.368 49L120.256 48.9452L120.168 49.1251H120.368V49ZM127.499 34.3569L127.611 34.302L127.499 34.0715L127.387 34.3022L127.499 34.3569ZM131.045 42.9941V43.1192H131.247L131.158 42.9387L131.045 42.9941ZM127.461 35.7297L127.573 35.6744L127.46 35.4445L127.348 35.6753L127.461 35.7297ZM123.953 42.9941L123.84 42.9396L123.753 43.1192H123.953V42.9941ZM134.649 48.8749H133.982V49.1251H134.649V48.8749ZM134.094 48.9444L131.386 43.4913L131.162 43.6026L133.87 49.0556L134.094 48.9444ZM131.274 43.4219H123.686V43.6721H131.274V43.4219ZM123.573 43.4923L120.923 48.9453L121.148 49.0547L123.798 43.6017L123.573 43.4923ZM121.036 48.8749H120.368V49.1251H121.036V48.8749ZM120.481 49.0548L127.612 34.4117L127.387 34.3022L120.256 48.9452L120.481 49.0548ZM127.387 34.4118L134.537 49.0549L134.761 48.9451L127.611 34.302L127.387 34.4118ZM131.158 42.9387L127.573 35.6744L127.349 35.7851L130.933 43.0494L131.158 42.9387ZM127.348 35.6753L123.84 42.9396L124.065 43.0485L127.574 35.7841L127.348 35.6753ZM123.953 43.1192H131.045V42.8689H123.953V43.1192Z" fill="black"/>
<path d="M56.7256 62.2052C56.7239 61.4676 55.2229 57.3181 54.9475 55.6546C54.672 53.9911 53.9213 52.4392 53.3103 50.4552C52.6993 48.4712 50.2269 44.9759 48.6534 43.7164C47.1902 42.5452 45.1985 42.1087 44.4802 41.7324C44.2749 41.5956 43.4166 41.4588 43.3172 41.4588C43.0791 41.4588 44.0424 42.1093 44.3091 42.8612C44.4958 43.3873 44.8907 43.5796 45.2327 45.5978C45.482 47.0687 45.8241 47.6502 46.8062 49.0869C48.3456 51.3387 50.6993 53.982 51.4885 56.0139C52.2777 58.0458 52.7442 59.5371 52.7442 59.5371C52.8674 59.9605 53.1221 60.8301 53.3103 61.4698C54.6778 66.1189 55.5326 69.3559 55.9658 71.5266C56.3151 73.2763 56.7162 76.1405 56.6429 76.3605C56.6281 76.4049 56.5592 76.2282 56.4898 75.9679C56.2623 75.1155 55.4917 72.9178 55.0163 71.7661C54.2066 69.8047 53.491 68.2941 51.4885 64.3189C50.7661 62.4474 50.4319 62.0513 49.6454 60.7806C49.0162 59.764 47.2168 59.1974 46.3958 59.0411C45.8713 59.0411 44.9864 59.1095 45.6432 59.3832C46.3 59.6568 46.601 60.0412 46.6694 60.1992C46.7366 60.234 46.7957 60.4345 46.8405 60.7806L46.995 61.6579C47.0461 62.2466 47.7727 64.6894 48.3127 66.0877C48.5821 66.7855 49.3653 68.4694 49.489 68.6167L50.4319 70.261C50.6315 70.5808 51.3861 71.7353 52.1087 72.8265C53.8417 75.4434 54.3973 76.4158 55.1206 78.0978C56.0201 80.1897 56.6893 82.591 56.8976 84.4739L56.9449 84.9015H57.3416H57.7382L57.7839 84.3371C58.1309 80.0471 59.4128 75.9942 61.6843 72.0055C61.9414 71.554 62.2288 71.046 62.3229 70.8767C62.417 70.7074 62.9165 69.8454 63.4329 68.9611C65.5601 65.3188 66.5129 63.4218 67.2471 61.3672C68.0027 59.2528 68.3907 57.2302 68.3431 55.6546C68.3242 55.0297 68.3106 54.969 68.1856 54.9535C68.0746 54.9396 67.9342 55.1395 67.4409 56.0139C66.7973 57.1545 65.893 58.6456 64.6504 60.6146C62.8616 63.4493 62.1734 64.5905 61.185 66.3614C60.2687 68.003 58.727 71.3651 58.7049 71.77C58.7013 71.8352 58.6881 71.8408 58.666 71.7864C58.5982 71.6194 59.7281 65.6803 60.2187 63.6248C61.0782 60.0241 61.7668 58.1396 63.481 54.6968C65.2973 51.0487 65.9802 49.4551 68.4352 43.1349C69.2244 41.103 69.9429 39.2558 70.0317 39.0301C70.1206 38.8043 70.2703 38.4195 70.3644 38.1749C70.4585 37.9303 70.6918 37.331 70.8828 36.8429C71.2788 35.8309 71.3081 35.6436 71.07 35.6436C70.9706 35.6436 70.8831 35.7019 70.8391 35.7975C70.5562 36.4124 69.4778 37.5155 68.0146 38.6868C67.3937 39.1837 66.6856 39.7726 66.441 39.9953C63.6457 42.5407 61.9215 46.0499 60.3269 52.4392C59.1424 57.1855 58.2382 63.0126 57.6836 69.4742C57.4331 72.3918 57.4302 72.3953 57.4206 69.7821C57.4059 65.7724 57.6958 62.0529 58.3429 57.9465C59.3813 51.3567 61.0855 45.3051 63.7084 38.8932C65.4851 34.5501 65.9679 33.3023 66.4616 31.7782C68.0239 26.9548 68.2174 23.9959 67.3338 18.4375C67.2561 17.9484 67.1584 17.3172 67.1166 17.035C66.9855 16.1483 66.7973 16.1448 66.3858 17.0216C66.2322 17.3489 65.9399 17.9706 65.7361 18.4033C64.7357 20.5277 64.4706 21.1253 63.7998 22.7669C62.4251 26.1315 61.7709 28.579 60.6232 34.6516C59.2397 41.9719 58.4922 46.2852 58.1216 49.0869C58.057 49.5761 57.9793 50.0044 57.9492 50.0388C57.919 50.0732 57.9092 49.9962 57.9275 49.8678C58.0569 48.959 58.7205 42.3597 58.9794 39.4063C59.0983 38.0495 59.1747 37.0938 59.4629 33.3517C59.5006 32.8626 59.5638 31.9082 59.6033 31.2309C59.6429 30.5536 59.7052 29.5838 59.7417 29.0759C59.8556 27.4952 59.8994 22.4707 59.8118 21.0372C59.5115 16.1186 58.5755 12.2439 56.8661 8.84296C55.2522 5.6321 53.122 3.19082 50.1795 1.18014C49.8354 0.944931 49.533 0.752552 49.5076 0.752552C49.4821 0.752552 49.3796 0.694674 49.2797 0.623865C49.0047 0.429023 48.1384 0 48.0199 0C47.8191 0 47.8412 0.204147 48.114 0.869197C51.0348 7.98998 52.3095 11.3355 53.5436 15.1195C56.096 22.9452 57.5054 30.7123 57.8203 38.688C57.9007 40.7219 57.9094 44.605 57.8339 44.7239C57.8047 44.77 57.7419 44.1558 57.6944 43.3592C57.4037 38.4762 56.4483 33.837 54.9262 29.9173C54.1295 27.8659 52.9987 25.7067 51.7085 23.7738C51.1567 22.947 50.0889 21.4471 49.7361 21.003C47.7248 18.4716 46.0584 16.4877 45.9433 16.4877C45.7974 16.4877 45.7321 16.6577 45.6527 17.2438C45.2422 20.2751 45.5515 23.5516 46.53 26.5379C46.683 27.0046 46.7976 27.397 46.7848 27.4099C46.7719 27.4226 49.0639 32.4966 51.3816 38.3801L52.2712 41.0654C54.8081 48.7228 55.9823 53.4262 56.6295 58.5225C56.8279 60.0848 56.9348 62.5302 56.8047 62.5302C56.7568 62.5302 56.726 62.4034 56.7256 62.2052Z" fill="#849187"/>
<path d="M23.5422 29.5545C21.8182 29.7735 20.4522 30.2159 19.9847 30.4097L19.54 40.1929C20.7145 40.4437 23.3986 40.9454 24.7395 40.9454C26.0804 40.9454 32.5045 40.6262 35.5489 40.4665L53.918 40.1929V30.4097C47.8291 30.0334 35.4394 29.2604 34.5911 29.1783C33.5307 29.0756 25.6973 29.2809 23.5422 29.5545Z" fill="#CB7635"/>
<path d="M27.632 86.9338C35.3277 85.5604 40.5268 79.0634 42.0824 76.2809C42.9987 74.642 43.9941 70.0952 42.5613 66.1215C41.5865 63.4179 38.8537 61.1817 36.6777 59.5196C31.9159 55.8823 23.7043 57.1087 21.1063 58.1439C14.3064 60.8536 11.9081 65.3594 10.5094 69.8158C8.9644 74.7385 10.8294 80.0725 12.1514 82.5408C13.3986 84.8694 20.9474 88.1268 27.632 86.9338Z" fill="#CABCB3"/>
<path d="M24.7399 3.69453C23.1322 3.67173 18.1174 5.61696 10.9203 13.5803C1.92389 23.5345 0.316162 38.1751 0.624024 39.646C0.931886 41.1169 -0.573211 49.1555 7.56803 60.4438C9.517 63.1461 13.2122 67.9009 20.1562 70.4322C25.5267 72.5188 27.3465 72.2041 28.058 72.3136C28.9473 72.4504 30.6577 72.7925 31.034 73.374C31.4102 73.9555 31.4787 74.2976 31.5471 74.7081C31.6018 75.0364 31.4102 75.2554 31.3076 75.3238C31.2164 75.2668 31.0271 75.0775 30.9998 74.7765C30.9724 74.4755 30.9884 73.2828 30.9998 72.7241C31.0112 72.61 31.0682 72.2452 31.205 71.6979C31.376 71.0137 31.6155 70.4664 31.9233 68.6534C32.2312 66.8405 33.0864 64.5828 32.3338 62.7699C31.5364 60.8489 30.2472 59.6228 26.074 59.2123C22.7354 58.884 22.0604 56.8635 22.1402 55.8943C22.163 55.2101 22.6054 53.534 23.3716 52.9867C24.3294 52.3025 24.8425 51.9947 25.2872 51.721C25.643 51.5021 24.5004 51.4702 23.8847 51.4816L22.7217 51.8921C22.505 52.0403 22.0033 52.2136 21.7297 51.721C21.456 51.2284 21.9577 50.4212 22.2428 50.0791C22.2798 50.0456 22.3259 50.0065 22.3796 49.9639M22.3796 49.9639C22.6735 49.7311 23.1936 49.396 23.6795 49.3265C24.2083 49.251 25.7044 49.2276 26.5529 49.2243M22.3796 49.9639C22.2998 49.9453 22.1128 49.9012 22.0033 49.8739C21.8665 49.8396 21.7297 49.0529 21.7297 49.0871C21.7297 49.1145 21.7297 47.867 21.7297 47.2399C21.7639 46.8522 21.8939 46.1111 22.1402 46.2479C22.2099 46.2867 22.2795 46.2989 22.3454 46.2939M22.3796 49.9639C22.6533 49.398 23.4469 48.273 24.432 48.3003C25.4172 48.3277 26.2564 48.9277 26.5529 49.2243M26.5529 49.2243C26.6265 49.2241 26.6953 49.2239 26.7581 49.2239C27.0318 49.2353 27.6064 49.1966 27.7159 48.9503C27.8254 48.704 26.3476 47.2057 25.5951 46.4874C25.2302 46.1225 24.3363 45.3927 23.6795 45.3927C23.0227 45.3927 22.7673 45.8488 22.7217 46.0769C22.6563 46.1586 22.5124 46.2814 22.3454 46.2939M22.3454 46.2939C22.5507 46.062 22.9338 45.5227 22.8243 45.2217M22.8243 45.2217C22.6875 44.8454 22.0718 44.0587 22.1744 43.7166M22.8243 45.2217C22.9269 45.2445 23.1527 45.2422 23.2348 45.0507C23.3169 44.8591 23.2462 44.6516 23.2006 44.5718C22.8927 44.1727 22.2565 43.443 22.1744 43.7166M22.1744 43.7166C21.6841 43.3061 20.7308 42.2868 20.8403 41.4932C20.9498 40.6996 21.4104 40.3871 21.6271 40.3301L24.8767 38.5514L25.8687 37.9014L26.3818 37.1147C26.473 36.8866 26.6076 36.3621 26.416 36.0885C26.2245 35.8148 25.7205 36.4305 25.4924 36.7726M25.4924 36.7726L25.8003 37.6962L25.4924 38.0041C25.3442 38.0383 25.0272 38.0451 24.9451 37.7988M25.4924 36.7726C25.5267 36.4077 25.7319 35.507 26.2792 34.8228C26.9633 33.9676 27.7501 32.1205 28.5027 31.539C29.2552 30.9574 31.7852 30.0589 32.4707 29.9654C33.2232 29.8628 34.3178 29.5892 36.5413 30.2733C37.0316 30.5127 38.1285 31.0874 38.5937 31.4705C39.1752 31.9494 41.2618 33.523 42.0144 34.7886C41.7635 34.9026 41.0703 35.1307 40.304 35.1307C39.5378 35.1307 38.7761 34.8114 38.4911 34.6518L38.1969 34.4807M36.7807 33.6574L35.5493 32.9414C34.8081 32.6222 33.2095 31.9905 32.7443 32.0179C32.1628 32.0521 31.2734 32.2573 29.9393 33.0441C28.6053 33.8308 28.1948 34.2413 27.9896 34.5834C27.8254 34.857 27.8299 35.3587 27.8527 35.5754L27.9896 35.849L29.6999 34.515L31.6497 33.3861C32.0374 33.1695 32.9359 32.7567 33.4285 32.8388C33.921 32.9209 35.8685 33.4187 36.7807 33.6574ZM36.7807 33.6574L38.1969 34.4807M38.1969 34.4807L38.2516 34.9254C38.206 35.1649 37.9232 35.6917 37.157 35.8832M37.157 35.8832C36.0624 35.5412 33.7021 34.8707 33.018 34.9254C32.3338 34.9802 32.14 35.0167 32.1286 35.0281C31.8891 35.1193 31.3008 35.4317 30.8629 35.9516C30.4251 36.4716 30.0648 37.2629 29.9393 37.5936M37.157 35.8832L36.7123 36.0041M29.9393 37.5936H29.1526M29.9393 37.5936H30.8629L36.7123 36.0041M36.7123 36.0041C36.5983 36.2032 36.1855 36.6563 35.4467 36.8752C34.5231 37.1489 31.1708 38.483 29.7341 38.7566C29.0614 39.6346 27.6817 41.4932 27.5449 41.9036C27.3738 42.4167 27.2712 42.6904 27.1686 43.1693C27.0865 43.5524 26.5187 43.9219 26.245 44.0587C26.1538 44.1043 25.8892 44.1681 25.5609 44.0587C25.4291 44.0148 25.271 43.8813 25.1155 43.7166M25.1155 43.7166C24.8835 43.4707 24.6576 43.1552 24.5347 42.9641C24.4776 42.8842 24.3157 42.6972 24.1242 42.5878C23.8847 42.451 23.4742 42.1773 22.5507 42.4167C22.8357 42.7018 23.5153 43.3061 23.9531 43.443C24.391 43.5798 24.9105 43.6824 25.1155 43.7166ZM42.8354 35.4043C42.9038 35.3815 43.068 35.6575 43.1774 36.9436C43.2869 38.2298 44.044 39.0759 44.4089 39.3381C44.6711 39.5434 45.2777 39.9744 45.6061 40.0565C46.0166 40.1591 46.3245 40.3301 46.9744 40.2959C47.6243 40.2617 48.1374 40.2959 48.4453 39.7828L43.0064 37.662C42.9836 38.0041 43.0406 38.8798 43.4511 39.646C43.9642 40.6038 44.2378 40.9116 44.8878 41.2195C45.5377 41.5274 45.6403 41.5274 45.914 41.5274C46.1329 41.5274 46.5297 41.459 46.7007 41.4247C47.0884 41.2423 47.9527 40.7817 48.3085 40.3985C48.6642 40.0154 49.3233 39.6688 49.6083 39.5434C49.6539 39.589 49.7383 39.7281 49.7109 39.9196C49.6836 40.1112 49.4259 40.9573 49.3005 41.3563C49.2663 41.5388 49.1978 41.9721 49.1978 42.2457C49.1978 42.4637 49.2702 43.2896 49.3285 43.9104C49.3548 44.1911 49.4995 44.7978 49.232 44.7086V44.7086C49.1499 44.6812 48.9926 44.435 48.89 44.2639L48.2169 43.1508C48.1485 43.0377 47.9753 43.0778 47.9636 43.2095L47.882 44.1275C47.8702 44.2595 47.8109 44.3827 47.7156 44.4748C47.4268 44.7539 46.9982 45.1749 46.8376 45.3585C46.646 45.5775 46.5753 45.8602 46.5639 45.9743C46.5411 46.0427 46.5092 46.1932 46.5639 46.2479C46.6323 46.3163 46.8034 46.419 47.0428 46.3848C47.2822 46.3505 48.4453 46.3505 49.061 46.0769C49.5536 45.858 49.7223 45.8032 49.7451 45.8032C50.0872 45.655 50.7577 45.2217 50.7029 44.6744C50.6482 44.1271 50.5433 43.8762 50.4977 43.8192L49.9213 43.0987C49.7601 42.8973 49.6443 42.6635 49.5818 42.4133V42.4133C49.5768 42.3932 49.5776 42.3721 49.5841 42.3525L49.6 42.3048C49.626 42.2269 49.6944 42.1708 49.7759 42.1606V42.1606C49.8685 42.1491 49.9624 42.1563 50.0522 42.1819L50.3951 42.2799L51.7291 42.7246C51.9344 42.907 52.3312 43.3677 52.2765 43.7508C52.2217 44.1339 52.0712 44.4007 52.037 44.5034C51.9116 44.7542 51.5376 45.4133 50.4977 46.1795C49.9574 46.5776 49.6092 46.7283 49.4185 46.8051C49.2609 46.8686 49.3731 46.9323 49.535 46.8807L49.8949 46.7662C50.4713 46.5828 50.9971 46.2679 51.4308 45.8462L51.4607 45.8172C51.8214 45.4665 52.1499 45.0842 52.4423 44.6748L52.4894 44.6089C52.506 44.5856 52.5329 44.5718 52.5615 44.5718V44.5718C52.6165 44.5718 52.6658 44.6056 52.6855 44.6569L52.8678 45.1309C52.9517 45.3492 52.9948 45.5811 52.9948 45.815V45.815C52.9948 45.9859 52.9453 46.1532 52.8523 46.2966L52.7408 46.4684C52.3652 47.0475 51.9004 47.5636 51.3636 47.9976L50.5661 48.6424L50.1214 48.9006M46.6665 47.8899L47.1796 47.6504L47.559 47.4986C47.6467 47.4636 47.7419 47.4513 47.8356 47.463V47.463C47.9216 47.4738 48.005 47.5029 48.0744 47.5548C48.1624 47.6208 48.2535 47.7041 48.2742 47.7872C48.2957 47.8729 48.2903 47.9898 48.2832 48.1044C48.2752 48.2346 48.2614 48.3648 48.2358 48.4927L48.1633 48.8553C48.1463 48.9401 48.1507 49.0278 48.1762 49.1104L48.204 49.2008C48.2468 49.34 48.3668 49.4415 48.5111 49.4607V49.4607C48.6929 49.485 48.8778 49.4674 49.0517 49.4095L49.285 49.3317C49.4317 49.2828 49.5731 49.219 49.7069 49.1413L50.1214 48.9006M46.6665 47.8899L46.3587 47.9925M46.6665 47.8899L46.256 48.3003L45.9268 48.6139C45.6675 48.8609 45.4158 49.1161 45.2 49.4019C44.9823 49.6904 44.6939 50.1085 44.4431 50.5922C43.9642 51.5158 43.9505 51.5774 43.7589 52.2341C43.5674 52.8909 43.5195 53.6252 43.5195 53.9103C43.4853 54.469 43.4511 55.7164 43.5879 56.2363C43.7589 56.8863 43.9984 57.1599 44.5115 57.9467C44.922 58.5761 45.8684 59.0983 46.2902 59.2808C46.7121 59.4518 47.7953 59.7802 48.7531 59.7254C49.7109 59.6707 50.2468 59.4974 50.3951 59.4176C50.9196 59.2009 52.0644 58.5556 52.4475 57.7072C52.9264 56.6468 52.8922 56.681 52.9948 55.4154C53.0974 54.1497 52.5501 53.0209 52.2422 52.0631C51.996 51.2969 51.3871 50.3756 51.1134 50.0107L50.1214 48.9006M46.3587 47.9925C46.1876 47.753 45.8524 47.0826 45.8798 46.3163C45.8907 46.0107 45.9538 45.6181 46.0381 45.2217M46.3587 47.9925L45.2982 48.8134C45.0702 49.0301 44.8878 49.1213 44.3747 49.8396C43.8616 50.558 43.6563 51.2421 43.5195 51.6526C43.3827 52.0631 43.2458 52.9183 43.0748 53.1919C42.9038 53.4656 41.7749 54.2865 40.7145 54.6286C39.6541 54.9707 37.6359 55.7232 35.173 56.0995C32.7101 56.4758 31.2953 56.5584 30.7945 56.6468C30.213 56.7494 29.9736 56.7836 29.9393 56.8863C29.912 56.9684 30.9199 57.1599 31.3076 57.2283C32.5733 57.3652 34.1134 57.3652 35.1046 57.3652C36.7123 57.3652 37.9186 57.3489 39.312 57.1599C40.765 56.9629 41.8989 56.6418 42.5477 56.4263C42.8111 56.3388 43.0957 56.5185 43.1162 56.7953L43.1432 57.1599C43.2002 57.445 43.3895 58.1451 43.6905 58.665C44.0668 59.315 44.7851 61.8463 49.882 62.633C49.882 62.633 50.3951 62.4278 50.1898 65.609C50.1898 67.2168 50.1283 67.6401 50.053 68.9955C49.9709 70.4732 50.4749 73.1231 50.7371 74.2634C51.1134 75.358 51.866 78.7103 55.4577 81.1732M46.0381 45.2217C46.218 44.3758 46.494 43.5128 46.5639 43.443C46.646 43.3609 46.7121 43.4772 46.7349 43.5456L46.748 43.6368C46.7847 43.8938 46.7767 44.1567 46.6488 44.3826C46.5323 44.5882 46.3401 44.8704 46.0381 45.2217Z" stroke="#010101" stroke-width="0.273655" stroke-linecap="round"/>
<path d="M49.5396 61.1618C52.8475 60.5711 53.557 58.9379 54.2257 57.7411C54.8876 56.5566 54.2441 51.3656 51.9339 49.5998C49.887 48.0354 47.9018 48.4912 46.7345 48.7789C45.676 49.0397 43.7097 51.3432 43.1085 53.26C42.4444 55.3773 43.0876 57.0557 43.6558 58.1174C44.1919 59.1189 46.6662 61.6749 49.5396 61.1618Z" fill="#D4996D"/>
<path d="M12.0145 45.2212L11.0568 43.9556L9.99634 45.2212L11.1594 46.5553L12.0145 45.2212Z" fill="#FEF2E9"/>
<path d="M33.3253 20.7637L32.3675 19.498L31.3071 20.7637L32.4702 22.0978L33.3253 20.7637Z" fill="#FEF2E9"/>
<path d="M72.5949 33.6934L71.6371 32.4277L70.5767 33.6934L71.7397 35.0275L72.5949 33.6934Z" fill="#FEF2E9"/>
</svg>
