<svg width="23" height="23" viewBox="0 0 23 23" fill="none" xmlns="http://www.w3.org/2000/svg">
<path d="M11.6464 1.64645C11.8417 1.45118 12.1583 1.45118 12.3536 1.64645L15.5355 4.82843C15.7308 5.02369 15.7308 5.34027 15.5355 5.53553C15.3403 5.7308 15.0237 5.7308 14.8284 5.53553L12 2.70711L9.17157 5.53553C8.97631 5.7308 8.65973 5.7308 8.46447 5.53553C8.2692 5.34027 8.2692 5.02369 8.46447 4.82843L11.6464 1.64645ZM11.5 15L11.5 2L12.5 2L12.5 15L11.5 15Z" fill="#829186"/>
<path d="M4 10.5V17C4 18.6569 5.34315 20 7 20H17C18.6569 20 20 18.6569 20 17V10.5" stroke="#829186"/>
</svg>
