<svg width="788" height="754" viewBox="0 0 788 754" fill="none" xmlns="http://www.w3.org/2000/svg">
<circle cx="411" cy="377" r="376.75" stroke="#CB7635" stroke-width="0.5"/>
<path d="M97.0539 567.111L97.0511 567.103L97.0489 567.095C95.161 560.21 93.555 553.66 92.4155 548.833C91.8457 546.419 91.3925 544.435 91.0789 543.056C91.0293 542.837 90.9832 542.634 90.9406 542.447C90.8488 542.042 90.7738 541.712 90.7164 541.461C90.6743 541.278 90.642 541.14 90.6196 541.047C90.6139 541.024 90.609 541.004 90.6048 540.987C90.6034 540.982 90.6021 540.976 90.6009 540.972C90.5913 540.958 90.5833 540.944 90.5772 540.934C90.5573 540.899 90.5353 540.854 90.5127 540.805C90.4666 540.705 90.4073 540.563 90.3394 540.392C90.2032 540.049 90.0276 539.577 89.8452 539.058C87.5351 532.492 83.4287 526.734 78.2017 522.723C77.69 522.331 77.3663 522.121 77.144 522.036C77.0374 521.995 76.9735 521.991 76.9346 521.997C76.9079 522 76.8805 522.01 76.8479 522.034C76.8461 522.04 76.844 522.047 76.8418 522.055C76.8277 522.104 76.8109 522.178 76.7919 522.279C76.7542 522.481 76.7117 522.77 76.6651 523.142C76.5722 523.883 76.4652 524.936 76.3505 526.229C76.1213 528.815 75.8621 532.354 75.6239 536.277C75.5409 537.643 75.5149 542.049 75.5767 544.409C75.7208 549.917 76.5226 555.479 77.856 560.233C80.4057 569.325 85.1713 578.49 91.6672 586.787C92.2003 587.468 92.6603 588.085 92.9718 588.532C93.1268 588.754 93.2486 588.939 93.3244 589.069C93.3603 589.131 93.3945 589.196 93.4136 589.251L93.414 589.252C93.4205 589.271 93.4424 589.333 93.4309 589.406C93.4237 589.452 93.3989 589.527 93.3234 589.58C93.2506 589.631 93.1755 589.63 93.136 589.625C93.066 589.615 93.0095 589.579 92.9892 589.566L92.9888 589.565C92.9576 589.545 92.9243 589.52 92.891 589.493C92.8237 589.438 92.7396 589.363 92.6423 589.271C92.4469 589.087 92.1855 588.825 91.8751 588.504C91.2538 587.861 90.4285 586.975 89.5271 585.985C87.7246 584.006 85.6121 581.608 84.2097 579.909C73.2192 566.6 64.8055 551.542 58.6784 534.219C55.7163 525.845 53.4788 518.093 49.1508 501.216C49.0505 500.825 48.961 500.514 48.8774 500.273C48.7926 500.03 48.7189 499.873 48.6554 499.781C48.6225 499.733 48.6004 499.713 48.5896 499.706C48.5769 499.711 48.545 499.726 48.49 499.777C48.4905 499.776 48.4904 499.776 48.4898 499.777C48.4878 499.779 48.4797 499.788 48.4649 499.808C48.4474 499.832 48.4255 499.863 48.3993 499.904C48.347 499.985 48.2827 500.093 48.2096 500.222C48.0637 500.481 47.8876 500.815 47.7094 501.17C47.3508 501.884 46.9941 502.661 46.8574 503.059C46.8034 503.217 46.7428 503.371 46.6878 503.494C46.6605 503.555 46.6332 503.612 46.6078 503.658C46.5925 503.686 46.5671 503.731 46.5334 503.771C46.5318 503.774 46.5298 503.778 46.5275 503.783C46.5151 503.808 46.4978 503.845 46.4756 503.897C46.4317 503.998 46.3731 504.142 46.3039 504.318C46.1656 504.67 45.9874 505.145 45.803 505.657L45.5678 505.572L45.803 505.657C42.6511 514.41 41.8034 522.297 43.1322 530.423C44.5398 539.031 48.2264 546.935 54.7521 555.303L54.5551 555.457L54.7521 555.303C56.65 557.737 64.0529 565.636 66.5826 567.925L66.5826 567.925C67.3999 568.665 68.9432 570.09 70.013 571.093C71.081 572.094 72.6012 573.491 73.3901 574.196C79.4406 579.601 80.9903 580.975 83.2125 582.906C88.0541 587.113 99.0385 596.343 100.623 597.537C100.742 597.627 100.85 597.726 100.911 597.819C100.927 597.844 100.945 597.877 100.958 597.914C100.97 597.95 100.984 598.01 100.968 598.079C100.95 598.159 100.899 598.223 100.833 598.26C100.776 598.293 100.72 598.299 100.683 598.3L100.683 598.3C100.633 598.301 100.592 598.289 100.571 598.282C100.546 598.274 100.522 598.264 100.5 598.254C100.456 598.234 100.405 598.206 100.35 598.174C100.24 598.11 100.1 598.019 99.9398 597.91C99.6185 597.692 99.2063 597.392 98.7798 597.061C93.9373 593.315 86.1103 587.879 72.5761 578.862C61.3573 571.388 56.4552 568.75 48.7322 566.02C44.9568 564.685 43.5419 564.24 38.3773 562.762C37.3245 562.461 35.8128 562.027 35.0176 561.798C34.4899 561.646 34.0854 561.56 33.7907 561.536C33.4778 561.51 33.3624 561.562 33.3296 561.593C33.3189 561.603 33.2688 561.658 33.3361 561.892C33.4006 562.116 33.5531 562.426 33.8055 562.837C34.1312 563.366 34.8491 564.557 35.4012 565.483L35.1866 565.611L35.4012 565.483C38.5305 570.733 41.2618 574.425 44.4817 577.39C47.7007 580.353 51.4197 582.601 56.5388 584.947C59.7704 586.428 62.5781 587.492 72.5892 591.026C87.3865 596.25 99.7571 602.65 111.532 611.174C118.87 616.486 124.904 621.864 130.729 628.283C131.675 629.326 132.387 630.111 132.846 630.635C133.075 630.896 133.245 631.097 133.35 631.235C133.401 631.301 133.446 631.364 133.474 631.416L133.475 631.417C133.484 631.435 133.514 631.489 133.517 631.556C133.52 631.595 133.516 631.675 133.453 631.746C133.387 631.82 133.304 631.833 133.259 631.834C133.186 631.834 133.126 631.804 133.11 631.795C133.081 631.781 133.051 631.763 133.022 631.744C132.965 631.706 132.892 631.653 132.807 631.586C132.635 631.453 132.396 631.255 132.089 630.994C131.475 630.472 130.578 629.69 129.386 628.649C118.83 619.433 108.479 611.892 99.1273 606.603C86.5378 599.483 77.9089 597.203 68.4849 598.454L68.4521 598.206L68.4849 598.454C67.6618 598.564 65.3437 598.971 63.3334 599.36C60.958 599.819 58.8035 600.124 57.0538 600.257C55.3161 600.39 53.9436 600.359 53.154 600.124C53.0227 600.085 52.845 600.121 52.6915 600.262C52.609 600.338 52.5849 600.379 52.578 600.393C52.5866 600.408 52.6135 600.443 52.6917 600.5C52.8226 600.595 53.0427 600.711 53.3864 600.86C53.7264 601.008 54.1725 601.182 54.7455 601.396C55.8524 601.809 57.2097 602.32 57.7619 602.53C58.3126 602.74 59.1829 603.068 59.6952 603.258L59.6953 603.258C60.209 603.448 64.39 605.022 68.9852 606.755C83.2766 612.143 87.0041 613.377 96.0704 615.726C104.658 617.951 108.852 619.649 115.901 623.756C117.914 624.929 121.671 627.342 124.934 629.509C126.567 630.593 128.078 631.617 129.188 632.395C129.743 632.784 130.2 633.113 130.522 633.358C130.683 633.48 130.813 633.583 130.907 633.664C130.953 633.704 130.994 633.743 131.026 633.777C131.042 633.794 131.06 633.814 131.075 633.835C131.087 633.852 131.114 633.89 131.127 633.942L130.885 634.005L131.127 633.942C131.137 633.981 131.148 634.032 131.147 634.083C131.147 634.112 131.143 634.27 130.988 634.341C130.917 634.374 130.851 634.367 130.811 634.358C130.771 634.348 130.739 634.332 130.719 634.32C130.677 634.296 130.64 634.264 130.609 634.235C130.595 634.221 130.551 634.189 130.459 634.14C130.372 634.094 130.258 634.039 130.116 633.978C129.833 633.856 129.453 633.711 128.998 633.549C128.088 633.226 126.887 632.841 125.57 632.447C122.935 631.66 119.847 630.839 117.712 630.406C113.091 629.468 110.008 628.961 102.174 627.851C96.7298 627.079 92.6785 626.425 89.6766 625.831C88.5261 625.604 87.82 625.481 87.377 625.442C87.1548 625.422 87.0161 625.425 86.9282 625.441C86.8463 625.455 86.8278 625.476 86.8229 625.481L86.6373 625.314L86.8229 625.481C86.7896 625.518 86.7762 625.538 86.771 625.548C86.7697 625.55 86.7689 625.552 86.7684 625.553C86.7691 625.56 86.7733 625.581 86.7939 625.623C86.8293 625.695 86.898 625.798 87.0207 625.956C87.1416 626.112 87.3056 626.309 87.5236 626.567C89.6861 629.122 93.398 631.583 98.0236 633.502C102.513 635.365 107.229 636.569 116.939 638.321C119.296 638.746 121.59 639.169 122.036 639.26C122.476 639.35 123.81 639.612 125 639.842L124.953 640.088L125 639.842C135.095 641.79 145.262 646.503 152.633 651.238C150.482 647.672 148.268 641.974 147.183 637.367C146.224 633.293 145.957 630.671 145.733 623.21C145.64 620.107 145.52 616.847 145.468 615.956C145.468 615.955 145.468 615.953 145.468 615.951L145.025 611.555L145.023 611.531L145.025 611.508C145.027 611.48 145.023 611.389 145.003 611.223C144.984 611.066 144.953 610.862 144.914 610.623C144.835 610.144 144.722 609.532 144.592 608.882C144.332 607.58 144.011 606.141 143.784 605.34L144.025 605.272L143.784 605.34C143.327 603.725 142.587 601.604 141.866 599.757C141.506 598.834 141.151 597.982 140.841 597.297C140.527 596.605 140.267 596.105 140.096 595.87L140.088 595.859L140.081 595.846L139.126 594.163C138.918 593.842 138.764 593.562 138.673 593.331C138.628 593.215 138.594 593.103 138.581 592.999C138.571 592.927 138.57 592.846 138.589 592.767C138.549 592.516 138.56 592.112 138.678 591.593C138.808 591.013 139.074 590.273 139.566 589.412C139.623 589.314 139.667 589.23 139.701 589.159C139.686 589.168 139.67 589.177 139.654 589.187C139.181 589.478 138.45 590.098 137.908 590.594C137.18 591.49 136.103 593.001 135.229 594.634C134.345 596.286 133.695 598.015 133.78 599.346C133.814 599.894 133.841 600.386 133.865 600.843C133.999 603.325 134.077 604.776 135.11 608.424L135.114 608.437L135.116 608.452C136.761 618.578 137.479 622.331 138.657 626.978C139.349 629.706 140.952 634.652 141.716 636.423C141.836 636.702 141.929 636.953 141.979 637.134C142.003 637.219 142.023 637.309 142.025 637.383L142.025 637.383C142.026 637.408 142.028 637.494 141.975 637.572C141.941 637.623 141.884 637.671 141.803 637.686C141.731 637.7 141.672 637.681 141.64 637.666C141.564 637.632 141.494 637.568 141.443 637.516C141.384 637.457 141.317 637.38 141.245 637.291C141.099 637.112 140.919 636.868 140.713 636.575C140.301 635.988 139.779 635.192 139.217 634.297C138.091 632.506 136.796 630.31 135.879 628.58C133.606 624.29 130.654 617.506 126.711 607.512C126.169 606.138 125.429 604.271 125.068 603.364L125.065 603.358L125.3 603.271L125.065 603.358L125.065 603.358L125.065 603.357L125.064 603.355L125.062 603.348L125.051 603.319L125.01 603.207C124.974 603.108 124.922 602.962 124.855 602.771C124.72 602.391 124.528 601.834 124.293 601.129C123.825 599.72 123.19 597.719 122.526 595.349C121.851 592.942 121.777 589.555 121.856 585.985C121.884 584.688 121.932 583.368 121.98 582.057C122.065 579.737 122.149 577.447 122.12 575.371C122.09 573.293 122.04 571.883 121.799 570.644C121.56 569.414 121.131 568.343 120.328 566.954C118.666 564.081 118.505 562.68 118.393 561.707C118.354 561.366 118.32 561.078 118.231 560.797C117.939 559.882 118.077 558.684 118.208 557.818C118.232 557.665 118.254 557.524 118.275 557.395C118.288 557.312 118.301 557.234 118.312 557.162C118.135 557.368 117.908 557.638 117.677 557.927C117.455 558.206 117.234 558.495 117.055 558.751C116.871 559.014 116.748 559.219 116.704 559.338L116.7 559.348L116.695 559.358C116.453 559.864 116.051 560.524 115.573 561.29C115.476 561.445 115.376 561.604 115.274 561.767C114.865 562.419 114.413 563.14 113.952 563.915C112.8 565.855 111.61 568.113 110.957 570.403C110.255 572.867 109.893 576.652 109.911 580.369C109.93 584.091 110.33 587.697 111.126 589.812C111.722 591.395 112.196 592.924 112.646 594.375C112.812 594.909 112.974 595.433 113.138 595.944C113.748 597.851 114.382 599.595 115.294 601.154C116.234 602.762 117.441 605.943 118.537 608.838L118.572 608.931C119.11 610.351 119.621 611.703 120.065 612.776C120.292 613.325 120.499 613.797 120.682 614.167C120.869 614.544 121.019 614.792 121.126 614.91C121.279 615.077 121.4 615.243 121.468 615.391C121.502 615.464 121.531 615.549 121.535 615.636C121.539 615.728 121.515 615.843 121.42 615.93C121.351 615.994 121.268 616.009 121.207 616.006C121.15 616.004 121.102 615.987 121.067 615.972C120.998 615.943 120.928 615.894 120.862 615.843C120.727 615.738 120.557 615.577 120.365 615.378C119.977 614.977 119.471 614.393 118.918 613.716C117.811 612.361 116.504 610.615 115.565 609.174C109.462 599.814 105.032 590.081 99.1246 573.072L97.0539 567.111ZM90.5906 540.934L90.5907 540.934L90.5906 540.934ZM76.856 522.012C76.8559 522.012 76.8558 522.012 76.8557 522.012L76.856 522.012ZM48.5821 499.701C48.5821 499.702 48.5827 499.702 48.584 499.702C48.5827 499.702 48.5821 499.701 48.5821 499.701ZM46.5385 503.761C46.5384 503.762 46.5381 503.762 46.5378 503.763C46.5406 503.758 46.5409 503.757 46.5385 503.761ZM133.034 631.652C133.034 631.652 133.033 631.652 133.033 631.651L133.034 631.652Z" fill="white" stroke="#CB7635" stroke-width="0.5"/>
<path d="M682.925 103.159L669.278 102.447L670.295 115.985L684.241 117.181L682.925 103.159Z" fill="#829186"/>
</svg>
